<?xml version="1.0" encoding="UTF-8"?>
<svg version="1.1" xmlns="http://www.w3.org/2000/svg" width="1024" height="1024">
<rect width="1024" height="1024" rx="205" ry="205" fill="#F8F8F8"/>
<path d="M0 0 C1.98935527 -0.00258625 3.97871003 -0.00560013 5.96806407 -0.0090034 C11.4213614 -0.01704634 16.87464554 -0.01886146 22.32794809 -0.01960087 C28.21509559 -0.02145619 34.10223632 -0.029006 39.98937988 -0.03573608 C53.52833243 -0.05000851 67.06728315 -0.05584388 80.60624182 -0.06042803 C87.30495813 -0.06276784 94.00367359 -0.06637094 100.70238924 -0.07012341 C123.65816555 -0.08295696 146.6139414 -0.09367543 169.56972122 -0.09712601 C171.00955786 -0.09734764 172.44939449 -0.09756942 173.88923113 -0.09779136 C175.33243691 -0.098012 176.77564269 -0.09823248 178.21884847 -0.09845281 C181.11389621 -0.09889534 184.00894396 -0.09934246 186.9039917 -0.09979248 C187.62179 -0.09990187 188.3395883 -0.10001126 189.07913807 -0.10012397 C212.33342258 -0.10375146 235.58767586 -0.11966087 258.84194842 -0.14298284 C283.45989735 -0.16762706 308.07782844 -0.18130101 332.69579005 -0.18249393 C335.40285286 -0.18266536 338.10991566 -0.18288078 340.81697845 -0.18312836 C341.48347498 -0.18318413 342.1499715 -0.18323989 342.83666489 -0.18329735 C352.86304038 -0.1843731 362.88938218 -0.19370197 372.9157486 -0.20731354 C384.33560225 -0.22276264 395.75540238 -0.22780676 407.17526451 -0.21957543 C412.99466556 -0.21568571 418.81395896 -0.21651594 424.63334656 -0.23063278 C429.97571539 -0.24347309 435.31789682 -0.2420864 440.66026577 -0.23004207 C442.57824781 -0.22810244 444.4962436 -0.23108174 446.41420642 -0.23988643 C492.47619149 -0.43770796 534.09369485 14.02402592 567.32098389 46.45294189 C582.88757179 62.21044304 594.19619797 81.32300822 601.57098389 102.14044189 C602.12012451 103.64864502 602.12012451 103.64864502 602.68035889 105.18731689 C604.99946056 112.07326495 606.43596182 119.07201344 607.75848389 126.20294189 C608.00912598 127.54981079 608.00912598 127.54981079 608.26483154 128.92388916 C610.54615076 141.86350359 610.71867402 154.70228987 610.71142578 167.79598999 C610.71401355 169.67697582 610.71702785 171.55796111 610.72042918 173.43894565 C610.72845439 178.58356106 610.73028624 183.72816249 610.73102665 188.87278342 C610.7328851 194.43140772 610.74043648 199.99002488 610.74716187 205.54864502 C610.76071487 217.69391993 610.76676546 229.83919153 610.77117252 241.98447275 C610.77394066 249.57829133 610.7781791 257.17210864 610.7826767 264.76592636 C610.79486649 285.8193688 610.80520098 306.87281041 610.80855179 327.92625618 C610.80877341 329.28605809 610.8089952 330.64585999 610.80921714 332.0056619 C610.80943777 333.3685983 610.80965826 334.7315347 610.80987859 336.0944711 C610.81032112 338.82838194 610.81076824 341.56229278 610.81121826 344.29620361 C610.81132765 344.9740472 610.81143704 345.65189078 610.81154975 346.35027508 C610.81517594 368.30218819 610.83108098 390.2540682 610.85440863 412.20596864 C610.87907339 435.45901154 610.89272105 458.71203298 610.89391971 481.96509159 C610.89483347 494.62291648 610.90050998 507.28069801 610.91873932 519.93851089 C610.93421546 530.72213279 610.93921684 541.50569793 610.93100122 552.28932883 C610.92712086 557.78114864 610.92789476 563.27285444 610.94205856 568.76465988 C611.07096695 621.92727676 605.93870176 672.5057278 566.88348389 712.26544189 C531.65142072 747.16267025 485.20806835 757.31882672 437.14811707 757.27415466 C435.22044345 757.27602651 433.29277022 757.27832869 431.36509758 757.28101999 C426.10552043 757.28709826 420.84595927 757.28700911 415.58637941 757.28582561 C409.89905009 757.28562059 404.21172576 757.29114997 398.5243988 757.29588318 C387.3957334 757.30416849 376.2670733 757.30693706 365.13840508 757.30749556 C356.08670047 757.30797173 347.03499759 757.31003152 337.98329353 757.31319618 C316.46219973 757.32056657 294.94110762 757.32672163 273.42001247 757.32619762 C272.73277892 757.32618205 272.04554536 757.32616647 271.33748655 757.32615042 C267.85485906 757.32606732 264.37223157 757.32596828 260.88960408 757.32586571 C259.8522426 757.32583579 259.8522426 757.32583579 258.79392431 757.32580527 C257.39539398 757.32576483 255.99686365 757.32572303 254.59833332 757.32567988 C232.85149856 757.32506746 211.10467941 757.33256985 189.35784912 757.34625244 C164.88466346 757.36164431 140.41148984 757.37020414 115.93829876 757.36928922 C102.99561132 757.368958 90.05294149 757.37167192 77.1102581 757.38246727 C66.08944891 757.39160114 55.06866529 757.3937239 44.04785394 757.38695785 C38.4329925 757.38370716 32.81818006 757.38358308 27.20332336 757.3923111 C22.04807941 757.40024172 16.89292279 757.39867862 11.7376808 757.39002696 C9.88781688 757.38850628 8.03794622 757.390253 6.18809026 757.39588704 C-10.97519648 757.44463469 -28.4720861 756.8285841 -45.24151611 752.89044189 C-46.19034668 752.67428223 -47.13917725 752.45812256 -48.11676025 752.2354126 C-62.81368434 748.76267466 -76.17367499 743.32734577 -89.42901611 736.14044189 C-90.34167236 735.64802002 -91.25432861 735.15559814 -92.19464111 734.64825439 C-125.26245182 715.76760119 -148.80735688 682.47811217 -159.24151611 646.26544189 C-164.78448647 625.81597797 -165.58137772 604.61645857 -165.56945801 583.55482483 C-165.5720471 581.70582397 -165.57506176 579.85682367 -165.57846141 578.00782412 C-165.58647089 572.96087056 -165.58831757 567.91393126 -165.58905888 562.86697209 C-165.59092008 557.40993253 -165.59847274 551.9529002 -165.60519409 546.49586487 C-165.6187353 534.57790674 -165.62479568 522.659952 -165.62920475 510.74198747 C-165.63197457 503.28852343 -165.63621328 495.83506068 -165.64070892 488.38159752 C-165.65289657 467.71152866 -165.66319656 447.04146081 -165.66658401 426.37138844 C-165.66680564 425.03690238 -165.66702742 423.70241633 -165.66724937 422.36793027 C-165.66747 421.03039917 -165.66769048 419.69286807 -165.66791081 418.35533696 C-165.66835334 415.67245853 -165.66880046 412.98958009 -165.66925049 410.30670166 C-165.66935988 409.64151335 -165.66946927 408.97632504 -165.66958198 408.29097951 C-165.67320841 386.74743646 -165.68911548 365.20392715 -165.71244085 343.660397 C-165.73711135 320.83235597 -165.75075352 298.00433145 -165.75195193 275.17627639 C-165.75286533 262.75263379 -165.75853248 250.32903539 -165.77677155 237.90540504 C-165.79225507 227.3220499 -165.79724475 216.73875261 -165.78903344 206.15538827 C-165.78515582 200.76671842 -165.78591326 195.37816476 -165.80009079 189.98950958 C-165.91608348 143.14162835 -163.3183934 98.61022977 -133.42901611 60.14044189 C-132.73034424 59.23680908 -132.03167236 58.33317627 -131.31182861 57.40216064 C-105.12839061 24.46320927 -66.78046818 5.53011087 -25.33473587 0.60161209 C-16.91852801 -0.2075273 -8.44594197 -0.00439593 0 0 Z M-48.99151611 43.26544189 C-49.86936768 43.56474609 -50.74721924 43.86405029 -51.65167236 44.17242432 C-80.74606449 54.52514361 -103.4145453 76.56835444 -116.63995361 104.15606689 C-120.37865071 112.34036195 -123.19983299 120.33972322 -125.11651611 129.14044189 C-125.32856689 130.06083252 -125.54061768 130.98122314 -125.75909424 131.92950439 C-128.4906739 144.16560256 -128.57627566 156.2426802 -128.56945801 168.72320557 C-128.57204452 170.62054123 -128.57505847 172.51787635 -128.57846141 174.41521072 C-128.58650101 179.61399444 -128.58831928 184.81276433 -128.58905888 190.01155353 C-128.59091473 195.6245935 -128.59846471 201.23762638 -128.60519409 206.85066223 C-128.61875615 219.11741539 -128.62479876 231.38416527 -128.62920475 243.65092468 C-128.63197067 251.31535918 -128.63620865 258.97979242 -128.64070892 266.64422607 C-128.65289862 287.8794651 -128.66323399 309.1147028 -128.66658401 330.34994507 C-128.66680564 331.72185361 -128.66702743 333.09376216 -128.66724937 334.4656707 C-128.66747 335.84079369 -128.66769049 337.21591667 -128.66791081 338.59103966 C-128.66835335 341.34953181 -128.66880047 344.10802396 -128.66925049 346.86651611 C-128.66935988 347.55045607 -128.66946927 348.23439602 -128.66958198 348.93906143 C-128.67321098 371.10576414 -128.68912694 393.27243412 -128.71244085 415.4391243 C-128.73707326 438.90253958 -128.75075172 462.36592951 -128.75195193 485.82936001 C-128.75286732 498.6088026 -128.75858536 511.38820231 -128.77677155 524.16763306 C-128.79220491 535.05071207 -128.7972739 545.93373495 -128.78903344 556.81682283 C-128.78513846 562.36434453 -128.78600009 567.91175329 -128.80009079 573.45926094 C-128.81289878 578.54853255 -128.81157211 583.63760715 -128.79950008 588.72687876 C-128.79755497 590.55730712 -128.80056588 592.38774978 -128.80934444 594.21815813 C-128.87905662 609.75078258 -127.46602686 624.93440337 -122.30401611 639.70294189 C-122.00471191 640.57370361 -121.70540771 641.44446533 -121.39703369 642.34161377 C-111.00170537 671.44959462 -90.261002 694.74942883 -62.51593018 708.39263916 C-46.41460593 715.99047563 -28.76182099 720.31392549 -10.94169235 720.27186966 C-9.71107482 720.27494861 -9.71107482 720.27494861 -8.45559633 720.27808976 C-5.71273252 720.28373397 -2.96991934 720.2823057 -0.22705078 720.28088379 C1.76200377 720.28346892 3.7510578 720.28648249 5.74011111 720.28988719 C11.20178836 720.29794335 16.66345246 720.299746 22.12513494 720.30048466 C28.0177327 720.30233768 33.91032366 720.30988638 39.80291748 720.31661987 C53.35945869 720.33090276 66.91599808 720.33672907 80.47254541 720.34131182 C87.17810255 720.34365041 93.88365883 720.34725341 100.5892153 720.3510072 C123.56250345 720.36384229 146.53579113 720.37456034 169.50908279 720.3780098 C170.95050869 720.37823143 172.39193458 720.37845321 173.83336048 720.37867515 C175.27818961 720.37889579 176.72301874 720.37911627 178.16784787 720.3793366 C181.06622394 720.37977914 183.96460001 720.38022626 186.86297607 720.38067627 C187.58160167 720.38078566 188.30022726 720.38089505 189.04062938 720.38100776 C212.32225954 720.38463533 235.6038585 720.40054426 258.88547671 720.42386663 C283.52452831 720.44850348 308.1635621 720.46218447 332.80262637 720.46337771 C335.51136955 720.46354915 338.22011272 720.46376458 340.9288559 720.46401215 C341.59578027 720.46406791 342.26270464 720.46412368 342.94983883 720.46418114 C352.9885986 720.4652575 363.02732812 720.47459217 373.06607819 720.48819733 C384.49848075 720.50363686 395.93082986 720.50869617 407.36324087 720.50045922 C413.19048121 720.49656605 419.01761405 720.49741684 424.844841 720.51151657 C430.19211946 720.52433596 435.53921051 720.52298806 440.886489 720.51092586 C442.80853289 720.50898266 444.73059044 720.51198258 446.65261522 720.52077022 C463.04905054 720.5909163 479.74066771 719.55218124 495.32098389 714.01544189 C496.18530029 713.7161377 497.0496167 713.4168335 497.94012451 713.10845947 C525.77561807 703.05019118 548.85268534 681.89823295 561.80316162 655.37921143 C564.10332771 650.43890088 566.09412357 645.4118322 567.88348389 640.26544189 C568.11390381 639.61994385 568.34432373 638.9744458 568.58172607 638.30938721 C573.36287982 623.67105306 574.01218375 608.5344919 573.95193481 593.28520203 C573.95540017 591.34724877 573.96017057 589.40929749 573.96611655 587.47135025 C573.97853555 582.19744612 573.97249804 576.92370673 573.96315789 571.64980233 C573.95633015 565.94216288 573.96686696 560.23455046 573.97509766 554.5269165 C573.98839738 543.36623162 573.98557413 532.20560746 573.97685973 521.04492026 C573.97006909 511.97035686 573.96917243 502.89581041 573.97243118 493.82124519 C573.97289088 492.52694788 573.97335058 491.23265057 573.97382421 489.89913212 C573.97478344 487.26934416 573.97575608 484.63955621 573.97674198 482.00976826 C573.98504152 458.08504262 573.97645264 434.1603497 573.96071419 410.23562934 C573.94647743 388.42792223 573.94775451 366.62026769 573.96209717 344.81256104 C573.97818497 320.26981048 573.98446258 295.72709166 573.97526038 271.18433625 C573.97430478 268.56483178 573.97336167 265.94532731 573.97243118 263.32582283 C573.97173694 261.39282408 573.97173694 261.39282408 573.97102868 259.42077486 C573.96844398 250.36203136 573.97279851 241.30330657 573.97986984 232.24456596 C573.98830377 221.19805214 573.9859649 210.15160223 573.97002761 199.10509568 C573.96217061 193.47461291 573.9590093 187.84423651 573.96897507 182.21375465 C573.97797582 177.05021243 573.97290126 171.88687425 573.95704241 166.72335029 C573.95371727 164.86491917 573.95533694 163.00647047 573.96266977 161.14805084 C574.09110587 125.86494909 562.26721809 94.19130476 537.32098389 68.85528564 C515.91337139 49.06111453 487.25952146 36.94065464 458.01281071 37.00901413 C457.18474673 37.0069615 456.35668276 37.00490886 455.50352594 37.00279403 C452.73466072 36.99714912 449.96584564 36.99857817 447.19697571 37 C445.18928388 36.99741492 443.18159258 36.99440136 441.17390198 36.9909966 C435.66082661 36.98294004 430.14776428 36.98113777 424.63468373 36.98039913 C418.68692815 36.97854622 412.73917929 36.97099764 406.79142761 36.96426392 C393.10907673 36.94998157 379.42672683 36.94415509 365.74437019 36.93957197 C358.97801502 36.93723364 352.21166068 36.93363071 345.44530617 36.92987659 C322.26781936 36.9170425 299.09033303 36.90632362 275.91284275 36.90287399 C274.4586642 36.90265236 273.00448564 36.90243058 271.55030709 36.90220864 C270.09268385 36.901988 268.63506061 36.90176752 267.17743737 36.90154719 C264.25336238 36.90110465 261.32928739 36.90065753 258.4052124 36.90020752 C257.31771654 36.90004343 257.31771654 36.90004343 256.20825107 36.89987603 C232.71164448 36.89624715 209.21506877 36.88033275 185.71847401 36.85701716 C160.85671688 36.83239218 135.99497741 36.8186999 111.13320774 36.81750607 C108.40120788 36.81733463 105.66920803 36.81711921 102.93720818 36.81687164 C102.26454894 36.81681587 101.59188969 36.81676011 100.89884684 36.81670265 C90.76571278 36.81562546 80.63260742 36.80633722 70.49948311 36.79268646 C58.96415508 36.77726267 47.42887999 36.77217845 35.89354361 36.78042457 C30.01199316 36.78432307 24.13054924 36.78344054 18.24901199 36.76936722 C12.85563037 36.75658042 7.46243482 36.75786765 2.06905328 36.76995793 C0.1268745 36.77190668 -1.81531769 36.76887493 -3.75747769 36.76011357 C-19.3478925 36.69428466 -34.14852831 38.15716039 -48.99151611 43.26544189 Z " fill="#000000" transform="translate(289.42901611328125,135.85955810546875)"/>
<path d="M0 0 C6.9468285 6.39875525 11.22905489 14.71289314 12.94140625 23.94140625 C12.9375 26 12.9375 26 10.9375 29 C8.38105993 29.55847464 6.02618742 29.93408889 3.4375 30.1875 C2.71570557 30.2599292 1.99391113 30.3323584 1.25024414 30.40698242 C-0.19305733 30.54590725 -1.63700709 30.67827045 -3.08154297 30.80371094 C-4.76174427 30.97019872 -6.43237363 31.22919379 -8.09765625 31.5078125 C-10.81023987 31.83483185 -12.49579845 31.96072069 -15.0625 31 C-17.18543745 28.38274031 -18.73655698 25.66135518 -20.3671875 22.71484375 C-22.45296291 19.37471953 -24.20682481 17.94730182 -27.828125 16.515625 C-35.33328442 14.78366513 -42.23394266 15.5258217 -49.0625 19 C-52.6747533 22.24176578 -53.80063579 25.29094008 -54.15625 30.01171875 C-53.99976933 33.33041302 -52.95950472 35.30747717 -51.0625 38 C-46.54226085 41.44752504 -42.09786982 43.25655769 -36.76953125 44.98828125 C-35.15289339 45.53550782 -33.53636026 46.08304386 -31.91992188 46.63085938 C-29.40527 47.4716816 -26.88921533 48.30781699 -24.37084961 49.13745117 C-9.20762636 54.15606494 4.02303228 59.36240866 12.09375 74.11328125 C16.04532911 83.8275799 14.9403413 95.692555 11.2578125 105.28515625 C5.7735618 116.56194394 -3.41253928 123.27364488 -14.77734375 127.95703125 C-31.51410489 133.27060464 -50.93664592 133.14665502 -66.95703125 125.64453125 C-77.64459216 119.66782927 -83.8408628 111.37077878 -88.0625 100 C-88.54394713 96.5567933 -88.5613769 93.4367075 -88.0625 90 C-83.12349048 87.09414738 -78.07879555 87.67037663 -72.5 87.6875 C-71.44619141 87.67138672 -70.39238281 87.65527344 -69.30664062 87.63867188 C-67.79166992 87.63770508 -67.79166992 87.63770508 -66.24609375 87.63671875 C-65.32368896 87.63373779 -64.40128418 87.63075684 -63.45092773 87.62768555 C-60.62505524 88.06819005 -59.79023414 88.7724461 -58.0625 91 C-57.0703125 92.90234375 -57.0703125 92.90234375 -56.1875 94.9375 C-54.00480337 99.46057857 -51.39473799 101.85869205 -46.859375 104.078125 C-40.18648781 106.27756826 -30.82422444 106.31808196 -24.375 103.3125 C-21.17348045 101.30370342 -18.86866392 99.38655736 -17.0625 96 C-16.13740502 91.24236866 -16.50575549 87.99830049 -18.875 83.75 C-26.29841442 76.1843498 -39.62554273 73.65148907 -49.390625 70.48242188 C-63.34263616 65.81246553 -75.55632594 59.70614653 -82.875 46.4609375 C-87.49458976 36.88744557 -87.57477984 25.26814624 -84.09765625 15.2734375 C-79.21849739 4.55769993 -69.71844925 -2.61510107 -59.0625 -7 C-39.81920609 -13.90342382 -16.54801698 -12.96837004 0 0 Z " fill="#000000" transform="translate(771.0625,253)"/>
<path d="M0 0 C23.96466898 -3.60833721 23.96466898 -3.60833721 31.58789062 1.85449219 C36.25259657 7.12005361 39.25257696 13.37785981 42.30761719 19.66845703 C45.10254547 25.1704177 48.5423385 30.2303097 51.9375 35.375 C53.27310627 37.45865026 54.6051197 39.54460772 55.93359375 41.6328125 C58.71172446 45.98546411 61.49592889 50.33413835 64.28515625 54.6796875 C64.99099854 55.78006348 65.69684082 56.88043945 66.42407227 58.01416016 C67.75574589 60.0898984 69.08819654 62.16513847 70.42163086 64.23974609 C73.74170171 69.41882997 77.01463807 74.62318579 80.23242188 79.86621094 C80.59720642 80.45981415 80.96199097 81.05341736 81.33782959 81.66500854 C82.22559998 83.10977211 83.11285463 84.55485256 84 86 C83.99777939 84.95208282 83.99555878 83.90416565 83.99327087 82.82449341 C83.97302917 72.96530101 83.95802288 63.10611281 83.94818783 53.24690437 C83.94296163 48.17777772 83.93586872 43.1086678 83.92456055 38.03955078 C83.91372237 33.15071319 83.90772118 28.26189173 83.90512276 23.37304306 C83.90327019 21.50466533 83.89965279 19.63628852 83.89426994 17.76791763 C83.88704719 15.15792154 83.88600959 12.54799271 83.88647461 9.93798828 C83.88287933 9.1597168 83.87928406 8.38144531 83.87557983 7.57958984 C83.88594784 2.22810432 83.88594784 2.22810432 85 0 C88.96930989 -0.02465881 92.93859034 -0.04284023 96.90795898 -0.05493164 C98.25920386 -0.05997057 99.61044326 -0.06680177 100.96166992 -0.07543945 C102.90020434 -0.08752419 104.838778 -0.09269828 106.77734375 -0.09765625 C108.52905884 -0.10551147 108.52905884 -0.10551147 110.31616211 -0.11352539 C113 0 113 0 114 1 C114.16501262 3.37531836 114.26152077 5.72259693 114.31640625 8.1015625 C114.33727798 8.88528229 114.35814972 9.66900208 114.37965393 10.47647095 C114.44787399 13.19252775 114.50610104 15.90867287 114.5625 18.625 C114.58334656 19.57209839 114.60419312 20.51919678 114.62567139 21.49499512 C115.11098006 44.40886505 115.11048965 67.32802245 115.12293625 90.24602509 C115.12500574 93.25835937 115.12877223 96.27068784 115.13284302 99.28302002 C115.13870888 104.08180134 115.13883863 108.88055018 115.13438225 113.67933273 C115.13334043 115.47877355 115.13391193 117.27821606 115.13614082 119.07765579 C115.13867906 121.55733667 115.13491423 124.03692737 115.12939453 126.51660156 C115.13142159 127.25074594 115.13344866 127.98489033 115.13553715 128.74128151 C115.11428894 133.77142211 115.11428894 133.77142211 114 136 C108.86995884 137.71001372 103.49596728 137.31112904 98.125 137.375 C96.34802734 137.43107422 96.34802734 137.43107422 94.53515625 137.48828125 C93.39175781 137.49988281 92.24835938 137.51148438 91.0703125 137.5234375 C90.02633301 137.54325684 88.98235352 137.56307617 87.90673828 137.58349609 C83.34484217 136.66774507 81.33901109 133.97249094 78.78631592 130.21212769 C77.47847989 128.12756331 76.2290004 126.01579279 74.98828125 123.890625 C71.05697841 117.31180103 66.99677285 110.85129105 62.73046875 104.484375 C62.19567902 103.68592163 61.66088928 102.88746826 61.1098938 102.06481934 C59.47179689 99.62471678 57.83016439 97.18702966 56.1875 94.75 C46.90681259 80.96751778 37.86316789 67.05506429 29 53 C28.99413376 54.00811234 28.98826752 55.01622467 28.98222351 56.05488586 C28.92506075 65.54602207 28.85233317 75.03692774 28.76428509 84.52782917 C28.71951878 89.40745207 28.6802766 94.28699027 28.65356445 99.16674805 C28.62759376 103.87421576 28.58723598 108.58135861 28.53681374 113.28862572 C28.52010271 115.08635613 28.50861488 116.88414279 28.50238609 118.68194008 C28.49279082 121.19626717 28.4647877 123.70975514 28.43237305 126.22387695 C28.43380814 126.97050095 28.43524323 127.71712494 28.4367218 128.4863739 C28.34492472 133.50645796 28.34492472 133.50645796 26.62898254 135.96174622 C24.25147026 137.47708543 22.36442213 137.38866984 19.5625 137.3984375 C17.97308594 137.40423828 17.97308594 137.40423828 16.3515625 137.41015625 C15.24554688 137.39855469 14.13953125 137.38695312 13 137.375 C11.89398438 137.38660156 10.78796875 137.39820313 9.6484375 137.41015625 C8.58882813 137.40628906 7.52921875 137.40242187 6.4375 137.3984375 C5.46683594 137.39505371 4.49617187 137.39166992 3.49609375 137.38818359 C0.50177214 136.92251738 -0.19170676 136.38709892 -2 134 C-2.37473011 131.61177158 -2.37473011 131.61177158 -2.3742218 128.73085022 C-2.38123611 127.63866684 -2.38825043 126.54648346 -2.39547729 125.42120361 C-2.38783356 124.22267761 -2.38018982 123.02415161 -2.37231445 121.78930664 C-2.37596512 120.52732956 -2.37961578 119.26535248 -2.38337708 117.96513367 C-2.39279046 114.50224177 -2.3833566 111.0396323 -2.37004495 107.57676244 C-2.3587348 103.95379798 -2.36283768 100.33084752 -2.36479187 96.70787048 C-2.3656751 90.62233869 -2.35458944 84.53691823 -2.33618164 78.45141602 C-2.31502303 71.41624594 -2.31150194 64.38123909 -2.3177436 57.34604365 C-2.32343959 50.57945861 -2.31778821 43.81293105 -2.30657005 37.04635429 C-2.30192621 34.16645685 -2.3010493 31.28659458 -2.3031559 28.40669441 C-2.3053903 24.38440535 -2.29092551 20.36234464 -2.2746582 16.34008789 C-2.27713562 15.14358612 -2.27961304 13.94708435 -2.28216553 12.71432495 C-2.27153831 11.07182014 -2.27153831 11.07182014 -2.26069641 9.39613342 C-2.25864354 8.44505235 -2.25659067 7.49397127 -2.25447559 6.51406956 C-1.98929488 3.89423965 -1.33128455 2.25024674 0 0 Z " fill="#000000" transform="translate(249,245)"/>
<path d="M0 0 C1.01691925 -0.00307663 2.0338385 -0.00615326 3.08157349 -0.00932312 C4.73284744 0.00145515 4.73284744 0.00145515 6.41748047 0.01245117 C8.14766922 0.0131385 8.14766922 0.0131385 9.91281128 0.01383972 C12.36913066 0.01686528 14.82544807 0.02476057 17.28173828 0.03710938 C20.94424688 0.05497876 24.60649602 0.05762146 28.26904297 0.05737305 C40.3800914 0.07448223 52.48433662 0.2390029 64.58935547 0.62963867 C65.70102081 0.6597554 66.81268616 0.68987213 67.95803833 0.72090149 C68.9757431 0.75870224 69.99344788 0.79650299 71.04199219 0.83544922 C71.93699432 0.86567673 72.83199646 0.89590424 73.75411987 0.92704773 C75.90966797 1.24291992 75.90966797 1.24291992 77.90966797 3.24291992 C78.16845703 5.54956055 78.16845703 5.54956055 78.17529297 8.39916992 C78.17916016 9.93250977 78.17916016 9.93250977 78.18310547 11.49682617 C78.17537109 12.56803711 78.16763672 13.63924805 78.15966797 14.74291992 C78.17126953 16.34973633 78.17126953 16.34973633 78.18310547 17.98901367 C78.18052734 19.01124023 78.17794922 20.0334668 78.17529297 21.08666992 C78.17303711 22.02704102 78.17078125 22.96741211 78.16845703 23.9362793 C77.90966797 26.24291992 77.90966797 26.24291992 75.90966797 28.24291992 C73.61911011 28.48342896 73.61911011 28.48342896 70.72558594 28.4699707 C69.64461639 28.46981964 68.56364685 28.46966858 67.44992065 28.46951294 C66.27905914 28.45919037 65.10819763 28.4488678 63.90185547 28.43823242 C62.10822067 28.43398758 62.10822067 28.43398758 60.27835083 28.42965698 C56.44702278 28.41843297 52.61592575 28.39332423 48.78466797 28.36791992 C46.19222342 28.357893 43.59977522 28.34876665 41.00732422 28.34057617 C34.64135955 28.31848639 28.27553026 28.28498698 21.90966797 28.24291992 C21.91490479 28.98453369 21.9201416 29.72614746 21.92553711 30.49023438 C21.94630411 33.84528763 21.95932726 37.20032737 21.97216797 40.55541992 C21.98054688 41.72266602 21.98892578 42.88991211 21.99755859 44.0925293 C22.00078125 45.21079102 22.00400391 46.32905273 22.00732422 47.48120117 C22.01256104 48.512854 22.01779785 49.54450684 22.02319336 50.60742188 C21.90966797 53.24291992 21.90966797 53.24291992 20.90966797 56.24291992 C21.51688187 56.23181686 22.12409576 56.22071381 22.74971008 56.20927429 C29.05963456 56.09880681 35.36928525 56.02330539 41.67993164 55.96826172 C44.03616489 55.94309002 46.39231985 55.90894999 48.74829102 55.86572266 C52.13170663 55.80519007 55.51409169 55.77673647 58.89794922 55.75463867 C60.48244621 55.71592903 60.48244621 55.71592903 62.09895325 55.67643738 C64.79253176 55.67540021 67.26735571 55.72143709 69.90966797 56.24291992 C72.36167242 58.75316154 72.78500406 60.18886433 73.19018555 63.61474609 C73.14531006 64.41372314 73.10043457 65.2127002 73.05419922 66.03588867 C73.0084375 66.9130957 72.96267578 67.79030273 72.91552734 68.6940918 C72.85171875 69.59708008 72.78791016 70.50006836 72.72216797 71.43041992 C72.67769531 72.34500977 72.63322266 73.25959961 72.58740234 74.2019043 C72.18282952 80.96975837 72.18282952 80.96975837 69.90966797 83.24291992 C67.84689331 83.48342896 67.84689331 83.48342896 65.27636719 83.4699707 C63.83509964 83.46974411 63.83509964 83.46974411 62.36471558 83.46951294 C61.32509674 83.45919037 60.28547791 83.4488678 59.21435547 83.43823242 C58.15177521 83.43540253 57.08919495 83.43257263 55.99441528 83.42965698 C52.59105298 83.41843632 49.18795111 83.39332829 45.78466797 83.36791992 C43.48128634 83.35789256 41.17790061 83.34876629 38.87451172 83.34057617 C33.21938205 83.32018998 27.5648175 83.28104453 21.90966797 83.24291992 C21.57966797 92.48291992 21.24966797 101.72291992 20.90966797 111.24291992 C24.84517578 111.20811523 28.78068359 111.17331055 32.83544922 111.13745117 C36.63809483 111.11406925 40.4407325 111.09584483 44.2434082 111.078125 C46.89057996 111.06301872 49.53772661 111.04253262 52.18481445 111.01660156 C55.98508898 110.98030001 59.78503323 110.96321189 63.58544922 110.94995117 C65.36681023 110.92672539 65.36681023 110.92672539 67.18415833 110.9030304 C68.28507309 110.9028038 69.38598785 110.90257721 70.52026367 110.90234375 C71.97587456 110.892351 71.97587456 110.892351 73.46089172 110.88215637 C75.90966797 111.24291992 75.90966797 111.24291992 77.72224426 112.62541199 C79.33558193 114.82309969 79.29725422 116.31445898 79.30810547 119.02416992 C79.31197266 119.94842773 79.31583984 120.87268555 79.31982422 121.82495117 C79.30822266 122.78788086 79.29662109 123.75081055 79.28466797 124.74291992 C79.29626953 125.70584961 79.30787109 126.6687793 79.31982422 127.66088867 C79.31595703 128.58514648 79.31208984 129.5094043 79.30810547 130.46166992 C79.30472168 131.30665039 79.30133789 132.15163086 79.29785156 133.0222168 C78.79549664 135.89606608 78.30338384 136.55966986 75.90966797 138.24291992 C73.19607143 138.53898874 70.71183315 138.65277416 67.99755859 138.63110352 C66.78981026 138.63898895 66.78981026 138.63898895 65.55766296 138.64703369 C62.8935512 138.66024817 60.23003591 138.65149065 57.56591797 138.64135742 C55.71651088 138.64337774 53.86710456 138.64628883 52.0177002 138.65005493 C48.14062927 138.65448024 44.2637656 138.64804059 40.38671875 138.6340332 C35.41304273 138.61694118 30.43985235 138.62678126 25.46619415 138.6447506 C21.64695567 138.65558285 17.82783263 138.65214466 14.0085907 138.64436722 C12.17453453 138.64236366 10.34046794 138.64482992 8.50642395 138.65180588 C5.94459201 138.65941123 3.38355031 138.64782943 0.82177734 138.63110352 C0.06116501 138.63717621 -0.69944733 138.6432489 -1.48310852 138.64950562 C-6.56071753 138.58798148 -6.56071753 138.58798148 -9.06256104 136.95794678 C-10.9672258 133.77965975 -10.46967386 130.02191015 -10.41845703 126.42260742 C-10.4161911 125.02635635 -10.4161911 125.02635635 -10.41387939 123.60189819 C-10.40431585 120.44031336 -10.37242302 117.2793509 -10.34033203 114.11791992 C-10.3282671 111.87541204 -10.31722925 109.63289845 -10.30712891 107.39038086 C-10.26688495 100.12336548 -10.1949834 92.85683409 -10.11587524 85.59016418 C-10.08899493 83.12004994 -10.06266743 80.64993016 -10.03637695 78.17980957 C-9.76530295 52.8669266 -9.44294872 27.55478907 -9.09033203 2.24291992 C-5.93478408 0.39517428 -3.63870889 -0.00582763 0 0 Z " fill="#000000" transform="translate(401.09033203125,243.757080078125)"/>
<path d="M0 0 C1.258125 -0.03738281 2.51625 -0.07476562 3.8125 -0.11328125 C5.61847656 -0.13068359 5.61847656 -0.13068359 7.4609375 -0.1484375 C8.57001465 -0.16825684 9.6790918 -0.18807617 10.82177734 -0.20849609 C13.625 0.375 13.625 0.375 15.16416931 2.42196655 C16.8949495 5.92069631 17.88140023 9.43619089 18.80151367 13.20703125 C18.99702316 13.98001556 19.19253265 14.75299988 19.39396667 15.54940796 C20.0351171 18.09347291 20.66432729 20.64031772 21.29296875 23.1875 C21.73653603 24.96213299 22.18066158 26.73662653 22.62532043 28.51098633 C23.55417793 32.2251231 24.4773166 35.9406199 25.39624023 39.65722656 C26.5735866 44.41770805 27.76345382 49.17494979 28.95740795 53.93128967 C29.87549298 57.59332742 30.7877518 61.25679661 31.69817543 64.92074585 C32.1347507 66.67540317 32.57293961 68.42965983 33.01277733 70.1835022 C33.62653915 72.63526357 34.23263116 75.08879648 34.83666992 77.54296875 C35.01897156 78.26519623 35.20127319 78.98742371 35.38909912 79.73153687 C36.27112512 83.35104279 36.83229593 86.64622016 36.625 90.375 C37.285 90.375 37.945 90.375 38.625 90.375 C38.75077423 89.2178801 38.87654846 88.06076019 39.00613403 86.86857605 C39.53556768 82.65421384 40.45313362 78.58379357 41.52685547 74.4777832 C41.71725403 73.73362152 41.90765259 72.98945984 42.1038208 72.2227478 C42.72809359 69.78905712 43.35973959 67.35735922 43.9921875 64.92578125 C44.43218535 63.22288826 44.87197073 61.51994037 45.31155396 59.81694031 C46.23110268 56.25978531 47.15456424 52.70367358 48.08056641 49.14819336 C49.26517225 44.59769266 50.43785825 40.04421446 51.60738945 35.48981953 C52.51121806 31.97704996 53.42238765 28.46621577 54.33566666 24.95589256 C54.77114005 23.2776577 55.20409696 21.59876772 55.63445663 19.91921425 C56.23681976 17.57209949 56.8492924 15.22784708 57.46435547 12.8840332 C57.72634232 11.84984001 57.72634232 11.84984001 57.99362183 10.79475403 C59.02617939 6.91001166 60.22263731 3.6202827 62.625 0.375 C65.3046875 -0.25610352 65.3046875 -0.25610352 68.5 -0.25390625 C70.22476563 -0.25680664 70.22476563 -0.25680664 71.984375 -0.25976562 C73.18578125 -0.23591797 74.3871875 -0.21207031 75.625 -0.1875 C77.42710937 -0.20393555 77.42710937 -0.20393555 79.265625 -0.22070312 C88.10268069 -0.14640053 88.10268069 -0.14640053 90.15170288 1.89901733 C92.15053474 5.25819924 92.97729546 8.75982918 93.87744141 12.52416992 C94.08109818 13.34244766 94.28475494 14.1607254 94.49458313 15.00379944 C95.16399608 17.70227708 95.82017206 20.40379684 96.4765625 23.10546875 C96.93978063 24.98088534 97.40393546 26.85607079 97.86898804 28.73103333 C99.08991453 33.66225017 100.30012326 38.59603076 101.50750732 43.53057861 C103.44459936 51.44057013 105.39688398 59.34681714 107.35111618 67.25258827 C108.03337419 70.0198964 108.71045694 72.78843316 109.38687134 75.55717468 C109.8015675 77.24281949 110.21638615 78.92843417 110.63134766 80.61401367 C110.9134333 81.77738754 110.9134333 81.77738754 111.20121765 82.96426392 C111.83401856 86.45794658 111.83401856 86.45794658 113.625 89.375 C113.88142776 88.31899597 114.13785553 87.26299194 114.40205383 86.17498779 C116.81934502 76.22567716 119.24663376 66.2788525 121.68374348 56.33437729 C122.93637748 51.22168953 124.18546758 46.10818983 125.42651367 40.99267578 C126.6242168 36.05638485 127.83115638 31.12243707 129.04454613 26.18997955 C129.50595279 24.30733047 129.96401982 22.42385967 130.41869545 20.53957367 C131.05588352 17.90141075 131.70486087 15.26641372 132.35668945 12.63183594 C132.63505898 11.46118843 132.63505898 11.46118843 132.91905212 10.26689148 C133.88805693 6.40471518 134.75850164 3.22896005 137.625 0.375 C140.22875977 -0.11083984 140.22875977 -0.11083984 143.31640625 -0.0859375 C144.42564453 -0.08207031 145.53488281 -0.07820312 146.67773438 -0.07421875 C147.83595703 -0.04972656 148.99417969 -0.02523437 150.1875 0 C151.93063477 0.00193359 151.93063477 0.00193359 153.70898438 0.00390625 C162.3443287 0.0943287 162.3443287 0.0943287 164.625 2.375 C165.27906816 11.32005581 161.56495006 20.88116161 159.25 29.4375 C158.25966919 33.14364009 157.2747527 36.85121715 156.2890625 40.55859375 C155.87723724 42.10281006 155.87723724 42.10281006 155.45709229 43.67822266 C153.06921645 52.64998562 150.73546559 61.63527892 148.41270065 70.62405968 C147.77323406 73.09844344 147.13313189 75.57266192 146.49282837 78.04682922 C143.91564441 88.00481787 143.91564441 88.00481787 141.34552002 97.96463013 C140.32359637 101.93050838 139.29743364 105.89526805 138.26836014 109.8592968 C137.88596732 111.33542891 137.50510529 112.81195856 137.12589645 114.28891182 C132.0850958 133.9149042 132.0850958 133.9149042 128.625 137.375 C126.25830078 137.63378906 126.25830078 137.63378906 123.3203125 137.640625 C121.73283203 137.64449219 121.73283203 137.64449219 120.11328125 137.6484375 C119.00339844 137.64070312 117.89351562 137.63296875 116.75 137.625 C115.64785156 137.63273438 114.54570313 137.64046875 113.41015625 137.6484375 C112.34925781 137.64585937 111.28835938 137.64328125 110.1953125 137.640625 C109.22352051 137.63836914 108.25172852 137.63611328 107.25048828 137.63378906 C104.41421586 137.35422343 102.90085225 137.09566816 100.625 135.375 C99.40429688 132.82788086 99.40429688 132.82788086 98.34375 129.40234375 C98.14084351 128.75571274 97.93793701 128.10908173 97.72888184 127.44285583 C97.00376116 125.09341207 96.31125262 122.73609175 95.625 120.375 C95.34962402 119.42844543 95.07424805 118.48189087 94.79052734 117.50665283 C92.52317208 109.66299346 90.32100722 101.80137474 88.125 93.9375 C82.15958732 72.57159145 82.15958732 72.57159145 75.625 51.375 C75.16613403 52.9849585 75.16613403 52.9849585 74.69799805 54.62744141 C71.85937984 64.58427452 69.0145632 74.53931399 66.16416931 84.49278259 C64.51763571 90.24530473 62.87901353 95.99999074 61.24809265 101.75695801 C60.25989194 105.24056741 59.26582477 108.72248465 58.27041626 112.20404053 C57.80053645 113.85243812 57.33320708 115.50156497 56.86849976 117.15142822 C56.21978538 119.45317442 55.56211708 121.75218462 54.90234375 124.05078125 C54.62176117 125.05899178 54.62176117 125.05899178 54.33551025 126.08757019 C53.13431672 130.22833237 51.73669701 134.26330299 48.625 137.375 C44.34075443 137.68418555 40.04402937 137.6534204 35.75 137.6875 C34.53957031 137.71650391 33.32914063 137.74550781 32.08203125 137.77539062 C30.92316406 137.78376953 29.76429688 137.79214844 28.5703125 137.80078125 C27.50312988 137.81536377 26.43594727 137.82994629 25.33642578 137.8449707 C22.625 137.375 22.625 137.375 21.07095337 135.72581482 C19.36518667 132.95259839 18.6086389 130.44176923 17.77832031 127.29199219 C17.44605942 126.04964813 17.11379852 124.80730408 16.77146912 123.52731323 C16.41521029 122.15887133 16.05910022 120.7903907 15.703125 119.421875 C15.32279435 117.98718167 14.9416363 116.55270747 14.55970764 115.11843872 C13.53385254 111.25731101 12.5189063 107.39339337 11.50607681 103.52883148 C10.45305773 99.51778185 9.39072703 95.50920223 8.32885742 91.50048828 C7.03248119 86.60472166 5.73684542 81.70876718 4.44548035 76.81167603 C1.85648558 66.99726787 -0.76194246 57.19144577 -3.4190712 47.39526367 C-3.95737841 45.41033978 -4.49481746 43.42518295 -5.0319519 41.43994141 C-7.03511764 34.03664288 -7.03511764 34.03664288 -9.04846191 26.6361084 C-9.95852628 23.29796676 -10.86095888 19.95784972 -11.76171875 16.6171875 C-12.02951645 15.64339142 -12.29731415 14.66959534 -12.57322693 13.66629028 C-12.81291702 12.77207367 -13.05260712 11.87785706 -13.29956055 10.95654297 C-13.50872604 10.18696259 -13.71789154 9.4173822 -13.93339539 8.6244812 C-14.42064313 6.14249935 -14.5188005 3.8983173 -14.375 1.375 C-11.64469533 -1.35530467 -3.67206899 0.04113316 0 0 Z " fill="#000000" transform="translate(508.375,244.625)"/>
<path d="M0 0 C0.94638376 -0.0072672 1.89276751 -0.01453441 2.86782956 -0.02202183 C6.05751875 -0.04035381 9.24601788 -0.02287777 12.43569946 -0.00571251 C14.73809616 -0.01147043 17.04048827 -0.01940931 19.34287071 -0.02934873 C25.68412335 -0.05029026 32.02500148 -0.03987348 38.36625576 -0.02441764 C44.49803023 -0.01186069 50.62976608 -0.02757673 56.76152986 -0.04015447 C70.07991224 -0.06650601 83.39817483 -0.0641922 96.71656865 -0.0497599 C108.37155464 -0.03719184 120.02649667 -0.03389406 131.68148804 -0.03987312 C132.84025631 -0.04044601 132.84025631 -0.04044601 134.02243404 -0.04103047 C137.15815789 -0.04258712 140.29388171 -0.04417911 143.42960551 -0.04582929 C172.85692298 -0.06113107 202.28416406 -0.04724627 231.71146974 -0.02034481 C257.86714583 0.00338399 284.02270022 0.00126089 310.17837524 -0.02264977 C339.55118745 -0.04941153 368.92393214 -0.06004596 398.29675484 -0.04458845 C401.42683028 -0.04298481 404.55690573 -0.04142061 407.6869812 -0.03987312 C408.84307373 -0.03928004 408.84307373 -0.03928004 410.02252166 -0.03867498 C421.67139483 -0.0329829 433.32021927 -0.03964776 444.96908569 -0.05227089 C458.21178823 -0.06654944 471.45435203 -0.06303112 484.69703722 -0.03586717 C491.45811805 -0.02245679 498.21893628 -0.01763383 504.98001862 -0.03411293 C511.16313437 -0.04895579 517.34577206 -0.04091758 523.52884412 -0.01422517 C525.77169801 -0.00861616 528.01459187 -0.01153433 530.2574203 -0.02360411 C533.29501929 -0.03870346 536.33095847 -0.0233248 539.36846924 0 C540.24912969 -0.01170583 541.12979014 -0.02341166 542.03713727 -0.03547221 C546.44286746 0.03262977 548.15237012 0.20959624 551.72603416 3.02900469 C553.74179924 5.70564302 554.32320292 6.81420044 554.34829712 10.0979557 C554.35796509 11.32578773 554.35796509 11.32578773 554.36782837 12.57842445 C554.34849243 13.42018227 554.32915649 14.26194008 554.30923462 15.1292057 C554.32857056 15.97096352 554.34790649 16.81272133 554.36782837 17.67998695 C554.36138306 18.49854164 554.35493774 19.31709633 554.34829712 20.1604557 C554.33983765 21.26743813 554.33983765 21.26743813 554.33120728 22.39678383 C553.30461443 25.93911025 551.56550821 27.3554879 548.68423462 29.6292057 C545.58441681 30.35959213 542.55720434 30.2989043 539.38408661 30.2556181 C538.43939123 30.2625857 537.49469585 30.26955331 536.52137333 30.27673206 C533.33741925 30.29405665 530.15466887 30.27556787 526.97073364 30.25739479 C524.67246239 30.26243699 522.37419505 30.26966327 520.07593679 30.27889293 C513.74607876 30.29788837 507.41660505 30.28554015 501.08675647 30.26817 C494.96599929 30.2537691 488.84527249 30.26765719 482.72451855 30.2784413 C469.43005825 30.30091788 456.13572491 30.29489098 442.84126444 30.2770052 C431.20721915 30.26144988 419.57321842 30.25558234 407.93916321 30.25934601 C407.16803737 30.25958281 406.39691154 30.25981961 405.60241826 30.26006359 C402.47232136 30.26103848 399.34222449 30.26205929 396.21212763 30.26314869 C366.83764466 30.27323621 337.46323998 30.25495439 308.08877542 30.22342833 C281.98010521 30.19556679 255.87152811 30.19060362 229.7628479 30.20562172 C223.07762405 30.20944402 216.3924002 30.21323878 209.70717621 30.21679211 C208.88419675 30.21722992 208.06121729 30.21766774 207.21329906 30.21811882 C185.40975682 30.22935358 163.60622145 30.22201344 141.80268145 30.20891136 C139.45713796 30.20752276 137.11159448 30.20614205 134.76605098 30.20477294 C133.21001963 30.20386356 131.65398828 30.20294088 130.09795694 30.20200483 C118.47002456 30.19520325 106.84211905 30.19787427 95.21418762 30.20495224 C81.99528755 30.21291066 68.77648127 30.20638187 55.55760181 30.1807772 C48.80870701 30.16806189 42.05997811 30.16217657 35.31107521 30.17331886 C29.139119 30.18331649 22.9674753 30.1749973 16.79555732 30.15173768 C14.55674153 30.14655329 12.31789802 30.14818497 10.07909411 30.15713234 C7.04714427 30.16824617 4.01626616 30.15498365 0.98438263 30.13536358 C0.10532652 30.1444424 -0.77372958 30.15352121 -1.67942375 30.16287515 C-5.75999884 30.11103157 -7.80585067 29.95126556 -11.33452463 27.72257084 C-15.03124149 23.81664564 -14.60193746 19.94853721 -14.69076538 14.8167057 C-14.72814819 14.00910805 -14.76553101 13.20151039 -14.80404663 12.36944008 C-14.81564819 11.58246742 -14.82724976 10.79549477 -14.83920288 9.98467445 C-14.85902222 9.26948647 -14.87884155 8.55429848 -14.89926147 7.81743813 C-12.84796394 0.12464324 -6.64663386 -0.08834775 0 0 Z " fill="#000000" transform="translate(242.31576538085938,422.37079429626465)"/>
<path d="M0 0 C0.94641959 -0.00226556 1.89283919 -0.00453111 2.86793816 -0.00686532 C6.05309448 -0.01321754 9.23820839 -0.01237517 12.42337036 -0.0115509 C14.70138606 -0.01454163 16.97940125 -0.01794396 19.25741577 -0.02172852 C25.45572598 -0.03058147 31.65402239 -0.03290717 37.85233831 -0.0335443 C43.0215018 -0.03449242 48.19066205 -0.03816958 53.3598243 -0.0417164 C64.85561513 -0.04940005 76.35139806 -0.05238457 87.84719108 -0.05171105 C88.8821508 -0.05165111 88.8821508 -0.05165111 89.9380188 -0.05158997 C90.62883337 -0.05154909 91.31964794 -0.0515082 92.03139628 -0.05146609 C103.22786601 -0.05105961 114.4243021 -0.06062925 125.62076209 -0.07472833 C137.11424105 -0.08908735 148.60769925 -0.09581557 160.10118783 -0.09513456 C166.55509261 -0.0948792 173.00895935 -0.09775084 179.46285629 -0.10831261 C185.53175211 -0.11797274 191.60057334 -0.1180871 197.66947174 -0.11079597 C199.89915449 -0.10974754 202.12884184 -0.11212831 204.35851669 -0.11815643 C207.39795381 -0.12584269 210.43713121 -0.12125382 213.4765625 -0.11352539 C214.80569666 -0.12124074 214.80569666 -0.12124074 216.16168201 -0.12911195 C221.90779271 -0.09673817 225.81185646 0.18042537 230.14601898 4.3032608 C232.33196821 7.90206202 232.36830519 10.22099972 232.37319946 14.42094421 C232.37943943 15.14447728 232.38567939 15.86801034 232.39210844 16.61346865 C232.4080358 19.03265969 232.39543598 21.45084277 232.38284302 23.87004089 C232.38826428 25.60649197 232.39538696 27.34293845 232.40408325 29.07937622 C232.42231912 33.79219018 232.415248 38.5046539 232.40256691 43.21747398 C232.39244062 48.1492393 232.40183156 53.0809746 232.40811157 58.01274109 C232.41538905 66.29481898 232.40579762 74.5767542 232.38674927 82.85881042 C232.36498034 92.43433519 232.37203164 102.00951929 232.39405489 111.5850358 C232.412206 119.80598317 232.41476862 128.02682797 232.40430021 136.24778891 C232.3980637 141.15798623 232.39723401 146.06802341 232.41044617 150.97821045 C232.42199983 155.5944978 232.41398783 160.21034588 232.39086914 164.82658577 C232.38557946 166.52089267 232.38710029 168.21523653 232.3959198 169.90952873 C232.40684914 172.22234552 232.3931451 174.5337543 232.37319946 176.84648132 C232.37169136 178.14063713 232.37018326 179.43479294 232.36862946 180.76816559 C231.78084598 184.69814627 230.63775615 186.34295159 227.86526489 189.13371277 C224.41990375 190.85639334 220.44612709 190.273853 216.65423584 190.26742554 C215.2042031 190.27082387 215.2042031 190.27082387 213.72487676 190.27429086 C210.46518301 190.28065293 207.2055306 190.27980008 203.9458313 190.27897644 C201.61708014 190.28196656 199.28832947 190.28536875 196.95957947 190.28915405 C190.61871981 190.29801334 184.27787363 190.30033298 177.93700838 190.30096984 C172.65099042 190.30191739 167.36497562 190.30559392 162.07895887 190.30914193 C150.32443243 190.31696991 138.56991185 190.31980989 126.81538303 190.31913658 C125.75677865 190.31907665 125.75677865 190.31907665 124.67678833 190.3190155 C123.97019287 190.31897462 123.26359742 190.31893374 122.53558998 190.31889162 C111.08295365 190.31848513 99.63035019 190.3280546 88.17772336 190.34215387 C76.42550942 190.35650808 64.67331151 190.36342457 52.92108858 190.36256009 C46.32020687 190.36230461 39.71936235 190.36518338 33.11848831 190.37573814 C26.91171905 190.38539118 20.70502273 190.38551756 14.49825096 190.37822151 C12.21654721 190.37717217 9.93483898 190.37955912 7.65314293 190.38558197 C4.54542882 190.39325563 1.43796953 190.38868782 -1.66973877 190.38095093 C-2.57887791 190.38609449 -3.48801705 190.39123805 -4.42470586 190.39653748 C-5.25700141 190.39193869 -6.08929696 190.38733989 -6.94681358 190.38260174 C-7.6641603 190.38281911 -8.38150702 190.38303647 -9.12059152 190.38326043 C-11.53123894 190.08458688 -13.080824 189.42557557 -15.13473511 188.13371277 C-17.62320659 184.40100555 -17.3930553 182.47401659 -17.40888977 178.01106262 C-17.41412645 177.2810713 -17.41936313 176.55107999 -17.42475849 175.79896772 C-17.43979302 173.34620403 -17.44046439 170.89364833 -17.44113159 168.44084167 C-17.44875075 166.68498379 -17.45717782 164.92912925 -17.46635437 163.17327881 C-17.48832992 158.39847323 -17.49710233 153.62373169 -17.50218081 148.84888124 C-17.50582068 145.86697787 -17.51205878 142.88509138 -17.51918221 139.90319443 C-17.54368699 129.50378937 -17.55673089 119.10443428 -17.56027222 108.70500183 C-17.56390865 99.00566535 -17.59380908 89.3066451 -17.6356768 79.6074053 C-17.67034573 71.28460687 -17.68582007 62.96191339 -17.68651825 54.63904321 C-17.68731221 49.66614247 -17.69610513 44.69356371 -17.72451591 39.72073746 C-17.75063853 35.04371785 -17.75293441 30.3672885 -17.73686028 25.69022942 C-17.73504116 23.97332793 -17.74177815 22.25639295 -17.75767899 20.53956413 C-17.77806366 18.19578364 -17.76763528 15.85408321 -17.74946594 13.5103302 C-17.75147727 12.19882807 -17.7534886 10.88732594 -17.75556087 9.53608131 C-16.97505562 5.25860661 -15.49814226 3.80183609 -12.13473511 1.13371277 C-8.09892779 -0.21155634 -4.20839873 -0.00731809 0 0 Z " fill="#000000" transform="translate(245.13473510742188,493.8662872314453)"/>
<path d="M0 0 C0.94328846 -0.00384115 1.88657692 -0.00768229 2.85844988 -0.01163983 C3.88645804 -0.01077335 4.91446621 -0.00990687 5.97362614 -0.00901413 C7.62139761 -0.01347081 7.62139761 -0.01347081 9.30245739 -0.01801753 C12.99038578 -0.02670239 16.67828171 -0.02821259 20.36621952 -0.02970505 C23.00743608 -0.03433327 25.6486497 -0.03933736 28.28986454 -0.04475021 C35.46949273 -0.05831792 42.64911532 -0.06435539 49.82875419 -0.06876087 C54.31189164 -0.07152508 58.79502695 -0.07576268 63.27816296 -0.08026505 C75.69209597 -0.09245405 88.10602726 -0.10275515 100.51996613 -0.10614014 C101.31406858 -0.1063597 102.10817103 -0.10657927 102.92633719 -0.10680549 C104.12031882 -0.10713291 104.12031882 -0.10713291 105.33842129 -0.10746694 C106.95136575 -0.1079104 108.56431021 -0.10835696 110.17725468 -0.10880661 C110.97732868 -0.10902804 111.77740268 -0.10924947 112.60172135 -0.10947761 C125.57246135 -0.11342761 138.54314524 -0.13088941 151.51386356 -0.15416613 C164.83237921 -0.1778741 178.1508667 -0.19034168 191.4694038 -0.19150805 C198.94669723 -0.19242495 206.42391748 -0.19818131 213.90119076 -0.21632767 C220.26638062 -0.23172094 226.63147466 -0.2368536 232.9966796 -0.22858956 C236.24404298 -0.22468071 239.49117283 -0.22725357 242.73852062 -0.23964691 C246.25927647 -0.25229759 249.77953435 -0.24652673 253.30028629 -0.23606491 C254.32606374 -0.24412132 255.35184118 -0.25217772 256.40870279 -0.26047826 C261.73459111 -0.223374 265.6501664 0.03204387 270.20044804 3.13142776 C272.97067007 7.28676081 272.56815401 10.68557628 272.57544804 15.56892776 C272.59994022 16.42808792 272.62443241 17.28724808 272.64966679 18.17244339 C272.67908409 24.49226151 272.67908409 24.49226151 270.30201054 27.66658401 C267.16251514 29.854894 265.45623394 30.25685894 261.67074871 30.26006222 C260.71129963 30.26328666 259.75185054 30.26651111 258.76332724 30.26983327 C257.70187062 30.26828466 256.640414 30.26673606 255.54679203 30.26514053 C253.8639968 30.26853887 253.8639968 30.26853887 252.14720571 30.27200586 C248.36237127 30.27837046 244.57757241 30.27751492 240.79273319 30.27669144 C238.08960171 30.27913635 235.38647278 30.28305492 232.68334293 30.28686905 C226.08754633 30.29518741 219.49175866 30.29792443 212.89595725 30.29848143 C207.53610212 30.29895605 202.17624995 30.30100809 196.81639576 30.30418205 C181.6306529 30.31299203 166.44491711 30.31760092 151.25917168 30.31685158 C150.4399296 30.31681162 149.62068751 30.31677167 148.77661991 30.3167305 C147.95638109 30.31668962 147.13614228 30.31664874 146.29104774 30.31660662 C132.99545332 30.3162001 119.69988722 30.32577022 106.404301 30.33986887 C92.76270665 30.35422063 79.12112611 30.36113971 65.47952402 30.36027509 C57.81670936 30.35994269 50.15392439 30.36270836 42.49111652 30.37345314 C35.96697602 30.3825424 29.44287865 30.38474642 22.91873457 30.37794372 C19.58863785 30.37467043 16.25869177 30.37572986 12.92859173 30.38329697 C9.32167661 30.3909643 5.71498139 30.386407 2.10807133 30.37866592 C1.05107615 30.38380949 -0.00591902 30.38895305 -1.09494436 30.39425248 C-2.05960894 30.38965368 -3.02427352 30.38505489 -4.01817036 30.38031673 C-4.85095206 30.3805341 -5.68373376 30.38075147 -6.54175127 30.38097543 C-9.05699599 30.10297328 -10.65563882 29.45917864 -12.79955196 28.13142776 C-15.48223569 24.05214689 -15.2028843 19.92045511 -15.23705196 15.19392776 C-15.26992306 14.39535355 -15.30279415 13.59677933 -15.33666134 12.77400589 C-15.3755419 8.50774753 -15.18812956 6.65844042 -12.58470821 3.12752151 C-8.55865265 0.24208758 -4.85850225 0.0074582 0 0 Z " fill="#000000" transform="translate(523.7995519638062,494.8685722351074)"/>
<path d="M0 0 C0.96144013 -0.00322445 1.92288027 -0.00644889 2.91345495 -0.00977105 C3.97199873 -0.00822245 5.03054251 -0.00667385 6.12116337 -0.00507832 C7.24388128 -0.00734387 8.36659919 -0.00960943 9.52333885 -0.01194364 C13.30506723 -0.01830024 17.08675993 -0.01745321 20.86849308 -0.01662922 C23.57177206 -0.01907503 26.2750485 -0.02299335 28.97832584 -0.02680683 C35.57064323 -0.03512006 42.16295168 -0.03786197 48.75527387 -0.03841921 C54.11224467 -0.03889402 59.46921251 -0.04094699 64.82618237 -0.04411983 C80.00601708 -0.05292795 95.18584471 -0.05753892 110.365682 -0.05678936 C111.18435868 -0.0567494 112.00303536 -0.05670945 112.84652042 -0.05666828 C113.66619374 -0.0566274 114.48586706 -0.05658652 115.33037896 -0.0565444 C128.61944327 -0.0561378 141.90847927 -0.0657104 155.19753539 -0.07980665 C168.83464135 -0.09415825 182.47173349 -0.10107752 196.1088472 -0.10021287 C203.7682935 -0.0998805 211.42771011 -0.10264524 219.08714962 -0.11339092 C225.60760611 -0.12247991 232.12801945 -0.12468438 238.64847951 -0.1178815 C241.97655794 -0.11460824 245.30448564 -0.11566759 248.63256741 -0.12323475 C252.23723953 -0.13090206 255.84169162 -0.12634482 259.44635868 -0.11860371 C260.50267174 -0.12374727 261.55898479 -0.12889083 262.64730734 -0.13419026 C263.61135522 -0.12959147 264.5754031 -0.12499267 265.56866455 -0.12025452 C266.40090418 -0.12047188 267.23314381 -0.12068925 268.09060282 -0.12091321 C270.63653809 0.16062455 272.19531477 0.74775559 274.34725285 2.12863445 C277.17501338 6.37027526 276.75281115 10.01363167 276.78475285 15.00363445 C276.81762394 15.90211102 276.85049503 16.80058758 276.88436222 17.7262907 C276.89145206 18.59898602 276.89854191 19.47168133 276.9058466 20.37082195 C276.91930119 21.16343426 276.93275578 21.95604656 276.94661808 22.77267742 C275.99573097 26.51038033 274.42019913 27.79861698 271.34725285 30.12863445 C267.65850867 30.8802528 264.01741395 30.80305774 260.26363468 30.76355267 C259.13174638 30.77135262 257.99985808 30.77915257 256.83367014 30.78718889 C253.03253024 30.80716754 249.23238495 30.79132004 245.43123722 30.77560711 C242.70956188 30.77962951 239.98792908 30.79110095 237.26627445 30.8021574 C230.63637435 30.82439793 224.00675717 30.81958515 217.37684596 30.8050942 C211.98892146 30.79380509 206.60107628 30.79226961 201.21314335 30.79771328 C200.06316235 30.79886253 200.06316235 30.79886253 198.88994941 30.80003499 C197.33253671 30.80163361 195.77512404 30.80325468 194.21771139 30.80489795 C179.6116749 30.81915783 165.00579527 30.80275904 150.39978451 30.77589612 C137.86543106 30.75355708 125.33130914 30.75743714 112.79695988 30.78048992 C98.24342521 30.80724377 83.69002805 30.81778451 69.13647223 30.8024286 C67.58476895 30.80083585 66.03306566 30.79926399 64.48136234 30.79771328 C63.7178823 30.7969419 62.95440225 30.79617052 62.16778645 30.79537577 C56.78593989 30.79105751 51.40418051 30.79834801 46.02234745 30.81011105 C39.46417431 30.82413002 32.90630041 30.82034911 26.34816158 30.79370733 C23.00148315 30.78056015 19.65571729 30.77811856 16.30897808 30.79195309 C12.68244056 30.80556471 9.05731775 30.78854287 5.43087101 30.76355267 C4.37105314 30.77470627 3.31123527 30.78585988 2.2193017 30.79735148 C-4.89729258 30.70186471 -4.89729258 30.70186471 -8.80702114 27.73520756 C-10.76498018 24.97013661 -11.27658524 23.74267896 -11.24649715 20.4059782 C-11.24391903 19.53779461 -11.2413409 18.66961102 -11.23868465 17.77511883 C-11.21032528 16.88115398 -11.1819659 15.98718914 -11.15274715 15.06613445 C-11.15532528 14.16830242 -11.1579034 13.27047039 -11.16055965 12.34543133 C-11.10519838 8.62238585 -11.05657359 5.89754816 -9.30899715 2.5700407 C-6.41811427 0.05415442 -3.66175598 0.00309999 0 0 Z " fill="#000000" transform="translate(519.6527471542358,566.8713655471802)"/>
<path d="M0 0 C1.44944682 -0.01059839 1.44944682 -0.01059839 2.92817539 -0.02141088 C3.98701515 -0.0189958 5.04585492 -0.01658071 6.13678074 -0.01409245 C7.26373106 -0.01932912 8.39068138 -0.0245658 9.55178171 -0.02996117 C13.34191478 -0.04500718 17.13191339 -0.04566733 20.92207432 -0.04633427 C23.63373556 -0.0528702 26.34538507 -0.06233029 29.05703831 -0.07155704 C36.43293439 -0.09440651 43.80880171 -0.10232726 51.18472838 -0.10738349 C55.78930035 -0.1106399 60.39386396 -0.11716195 64.99843121 -0.12438488 C77.74516468 -0.143949 90.49189038 -0.16035489 103.23863983 -0.16326141 C104.46213345 -0.16354277 104.46213345 -0.16354277 105.71034411 -0.16382981 C107.3639034 -0.16419606 109.0174627 -0.16455976 110.67102199 -0.16492092 C111.49185754 -0.16510373 112.31269309 -0.16528654 113.15840244 -0.16547489 C113.98023856 -0.16565544 114.80207468 -0.16583599 115.64881492 -0.16602201 C128.9727663 -0.16956551 142.29655625 -0.19659967 155.62045162 -0.23397278 C169.29715116 -0.2720289 182.97377052 -0.29141868 196.6505242 -0.29172093 C204.33073587 -0.29230603 212.01075486 -0.30083206 219.69091702 -0.32971859 C226.22895095 -0.35419629 232.7667219 -0.36153987 239.30478924 -0.34647106 C242.64136091 -0.33928742 245.97698891 -0.34292566 249.31357288 -0.36288166 C252.92917324 -0.38319245 256.54341627 -0.37287693 260.15899754 -0.35466862 C261.7439111 -0.37446857 261.7439111 -0.37446857 263.36084312 -0.39466852 C270.45896456 -0.31270148 270.45896456 -0.31270148 274.36271095 2.65895653 C276.26362147 5.33356538 276.84345516 6.50454356 276.84028721 9.72881222 C276.8422208 10.54736691 276.8441544 11.36592159 276.84614658 12.20928097 C276.82229893 13.05103878 276.79845127 13.89279659 276.77388096 14.76006222 C276.78483799 15.60182003 276.79579502 16.44357784 276.80708408 17.31084347 C276.75857243 21.41816374 276.53932604 23.72203816 274.36372471 27.29131222 C271.21521929 30.17125184 268.67398762 30.38521317 264.57425117 30.38869667 C263.13731607 30.39353334 263.13731607 30.39353334 261.67135197 30.39846772 C260.61669914 30.39691912 259.56204631 30.39537052 258.4754343 30.39377499 C257.35679995 30.39604054 256.23816559 30.3983061 255.08563322 30.40064031 C251.31772434 30.40699682 247.54985127 30.40614989 243.7819376 30.40532589 C241.08851072 30.40831633 238.3950867 30.41169003 235.70166111 30.4155035 C229.13340718 30.42381667 222.56516223 30.42655864 215.99690349 30.42711588 C210.65947884 30.42759069 205.32205716 30.42964368 199.98463345 30.43281651 C184.86013626 30.44162461 169.73564617 30.44623559 154.6111464 30.44548603 C153.79545671 30.44544608 152.97976703 30.44540612 152.13935947 30.44536495 C151.32267677 30.44532407 150.50599407 30.44528319 149.66456341 30.44524107 C136.423998 30.44483447 123.18346101 30.45440707 109.94290382 30.46850332 C96.3555184 30.48285497 82.76814685 30.48977418 69.18075365 30.48890954 C61.54925298 30.48857717 53.91778211 30.49134183 46.28628826 30.50208759 C39.7896203 30.51117665 33.29299564 30.51338099 26.79632408 30.50657817 C23.48041129 30.50330496 20.16459926 30.50436422 16.84869099 30.51193142 C13.25715578 30.51959887 9.66584139 30.5150414 6.07431126 30.50730038 C5.02188915 30.51244394 3.96946704 30.5175875 2.88515335 30.52288693 C1.92458887 30.51828814 0.96402438 30.51368934 -0.02564812 30.50895119 C-0.85484998 30.50916856 -1.68405185 30.50938592 -2.53838104 30.50960988 C-5.080744 30.22766604 -6.6392291 29.63856922 -8.78861904 28.26006222 C-10.85252845 25.1641981 -11.04375081 24.4625777 -11.05424404 20.95146847 C-11.05682217 20.12195675 -11.05940029 19.29244503 -11.06205654 18.43779659 C-11.05432217 17.57476925 -11.04658779 16.71174191 -11.03861904 15.82256222 C-11.04635342 14.96340206 -11.05408779 14.10424191 -11.06205654 13.21904659 C-11.05947842 12.38824581 -11.05690029 11.55744503 -11.05424404 10.70146847 C-11.05198818 9.94551388 -11.04973232 9.18955929 -11.0474081 8.41069698 C-10.74494399 5.89710604 -10.19571467 4.36764191 -8.78861904 2.26006222 C-5.78555942 0.40327649 -3.50210589 0.00819035 0 0 Z " fill="#000000" transform="translate(519.7886190414429,638.7399377822876)"/>
<path d="M0 0 C0.93625351 -0.00205263 1.87250703 -0.00410527 2.83713186 -0.0062201 C5.9919745 -0.01189976 9.14677362 -0.01043166 12.30162048 -0.00901413 C14.57926261 -0.01159719 16.85690428 -0.01461019 19.13454533 -0.01801753 C25.40726652 -0.02609735 31.67997627 -0.02787764 37.95270205 -0.028615 C44.01839088 -0.03027403 50.08407334 -0.03659075 56.14975902 -0.04269341 C72.39921443 -0.05875181 88.6486689 -0.06465598 104.89813082 -0.06944216 C112.58265697 -0.07177771 120.26718238 -0.07538025 127.95170795 -0.07913754 C154.24951218 -0.0919713 180.547316 -0.1026919 206.84512329 -0.10614014 C208.49581824 -0.10636177 210.14651318 -0.10658355 211.79720813 -0.10680549 C213.45190863 -0.10702613 215.10660913 -0.10724661 216.76130962 -0.10746694 C220.0809803 -0.10790949 223.40065098 -0.10835661 226.72032166 -0.10880661 C227.5434066 -0.108916 228.36649154 -0.10902539 229.21451844 -0.1091381 C255.91916561 -0.1127709 282.62378566 -0.12870025 309.32842244 -0.15199697 C337.55383539 -0.17657546 365.77923283 -0.190312 394.00465679 -0.19150805 C397.10103035 -0.19167951 400.19740391 -0.19189494 403.29377747 -0.19214249 C404.43742164 -0.19222614 404.43742164 -0.19222614 405.60416973 -0.19231148 C417.88880502 -0.19346348 430.17341253 -0.20449782 442.45803842 -0.21902954 C454.79660974 -0.23337315 467.13514533 -0.23664359 479.4737227 -0.22858956 C486.16184377 -0.22451768 492.84985966 -0.22567719 499.53797531 -0.23964691 C505.65435706 -0.25230612 511.77057388 -0.25125903 517.88695514 -0.2390562 C520.10558947 -0.23708531 522.32423517 -0.24024112 524.54285347 -0.24890056 C527.54739826 -0.25988981 530.55135023 -0.25257886 533.55587769 -0.24050903 C534.42691206 -0.24810423 535.29794644 -0.25569942 536.1953758 -0.26352477 C540.87318466 -0.22266639 544.00075136 0.06292527 547.77793884 3.13142776 C550.53733847 7.2705272 550.18256007 10.64036983 550.21543884 15.50642776 C550.24830994 16.35720901 550.28118103 17.20799026 550.31504822 18.08455276 C550.32213806 18.91213089 550.32922791 19.73970901 550.33653259 20.59236526 C550.34998718 21.34308304 550.36344177 22.09380081 550.37730408 22.86726761 C549.42600622 26.4608873 547.68016217 27.84587444 544.77793884 30.13142776 C541.67304533 30.86250741 538.640432 30.80287921 535.46217346 30.76063347 C534.51578971 30.76790067 533.56940595 30.77516788 532.5943439 30.7826553 C529.40465471 30.80098728 526.21615558 30.78351124 523.026474 30.76634598 C520.7240773 30.7721039 518.42168519 30.78004278 516.11930275 30.7899822 C509.77805011 30.81092373 503.43717198 30.80050694 497.0959177 30.78505111 C490.96414323 30.77249415 484.83240738 30.7882102 478.7006436 30.80078794 C465.38226122 30.82713948 452.06399864 30.82482566 438.74560481 30.81039337 C427.09061883 30.79782531 415.4356768 30.79452753 403.78068542 30.80050659 C402.62191715 30.80107948 402.62191715 30.80107948 401.43973942 30.80166394 C398.30401558 30.80322058 395.16829175 30.80481258 392.03256796 30.80646276 C362.60525049 30.82176454 333.1780094 30.80787974 303.75070372 30.78097828 C277.59502763 30.75724948 251.43947325 30.75937258 225.28379822 30.78328323 C195.91098602 30.810045 166.53824133 30.82067943 137.16541862 30.80522192 C134.03534319 30.80361828 130.90526773 30.80205408 127.77519226 30.80050659 C126.61909973 30.79991351 126.61909973 30.79991351 125.4396518 30.79930845 C113.79077863 30.79361637 102.14195419 30.80028123 90.49308777 30.81290436 C77.25038523 30.82718291 64.00782144 30.82366459 50.76513624 30.79650064 C44.00405541 30.78309026 37.24323718 30.7782673 30.48215485 30.7947464 C24.29903909 30.80958925 18.11640141 30.80155105 11.93332934 30.77485864 C9.69047545 30.76924963 7.44758159 30.7721678 5.20475316 30.78423758 C2.16715417 30.79933693 -0.86878501 30.78395827 -3.90629578 30.76063347 C-4.78695623 30.7723393 -5.66761668 30.78404513 -6.57496381 30.79610568 C-10.98095106 30.72799972 -12.69051446 30.55064982 -16.26485252 27.73162878 C-18.28603908 25.04643149 -18.85420258 23.95536427 -18.85096741 20.66267776 C-18.852901 19.84412308 -18.85483459 19.02556839 -18.85682678 18.18220901 C-18.83297913 17.3404512 -18.80913147 16.49869339 -18.78456116 15.63142776 C-18.79551819 14.78966995 -18.80647522 13.94791214 -18.81776428 13.08064651 C-18.77023477 9.05648108 -18.5169976 6.65040889 -16.49940491 3.10017776 C-11.9065812 -0.87029076 -5.77583668 -0.01173338 0 0 Z " fill="#000000" transform="translate(246.22206115722656,715.8685722351074)"/>
<path d="M0 0 C0.94123385 -0.00235223 1.8824677 -0.00470446 2.85222378 -0.00712797 C6.04207148 -0.01384512 9.2318787 -0.01335893 12.4217329 -0.01294994 C14.71740999 -0.01624687 17.01308649 -0.01997207 19.30876225 -0.02409142 C25.64526797 -0.03413886 31.98176421 -0.03783261 38.31827676 -0.04048073 C44.44134466 -0.04349571 50.56440603 -0.05212257 56.68746915 -0.06002467 C73.09790757 -0.08088612 89.50834781 -0.09134122 105.9187964 -0.10015428 C113.67835579 -0.10435803 121.4379144 -0.10958036 129.19747313 -0.11483881 C155.74682794 -0.13272974 182.29618297 -0.14772718 208.84554291 -0.155159 C210.51284737 -0.15563376 212.18015183 -0.15610965 213.84745629 -0.15658666 C214.67430823 -0.15682303 215.50116017 -0.15705941 216.35306823 -0.15730295 C220.54247562 -0.15850418 224.73188301 -0.15971962 228.9212904 -0.16094494 C229.75269821 -0.16118509 230.58410602 -0.16142524 231.44070801 -0.16167267 C258.40792191 -0.16956878 285.37509188 -0.19300666 312.34228659 -0.22550088 C340.83770519 -0.25977402 369.33309808 -0.27950776 397.82853764 -0.28280324 C400.95472794 -0.28322079 404.08091822 -0.28370036 407.2071085 -0.28422642 C407.9768932 -0.28434961 408.7466779 -0.2844728 409.53978941 -0.28459973 C421.94454869 -0.28693481 434.34925705 -0.30261186 446.75399816 -0.32306826 C459.21504433 -0.34329203 471.67602915 -0.34881994 484.13708869 -0.33929763 C490.8920513 -0.33453063 497.64683813 -0.33675304 504.40178013 -0.35605907 C510.57938567 -0.37356326 516.75670288 -0.37279736 522.93431094 -0.35716178 C525.17524396 -0.35476622 527.4161963 -0.35920889 529.65709964 -0.37099043 C532.6919117 -0.38596411 535.72568275 -0.37653764 538.76046753 -0.36076355 C540.080338 -0.37609686 540.080338 -0.37609686 541.42687252 -0.39173993 C545.50788341 -0.34510932 547.56751621 -0.1778722 551.11034268 2.02698928 C553.37158593 4.45976536 553.70954222 5.45033573 553.73305798 8.72406483 C553.74272594 10.02440662 553.74272594 10.02440662 553.75258923 11.35101795 C553.73325329 12.24884998 553.71391735 13.14668201 553.69399548 14.07172108 C553.71333141 14.96568592 553.73266735 15.85965076 553.75258923 16.78070545 C553.71866698 21.35003244 553.56711266 23.48468288 550.71743298 27.20062733 C546.02966154 30.62311533 541.66924495 30.27690878 536.09302998 30.26564884 C535.15908415 30.26770148 534.22513833 30.26975411 533.26289111 30.27186894 C530.10385538 30.27756575 526.94486287 30.2760784 523.78582287 30.27466297 C521.50990685 30.27724506 519.23399129 30.28025779 516.95807636 30.28366637 C510.68083647 30.2917578 504.403608 30.29352713 498.12636352 30.29426384 C492.05912923 30.29592118 485.99190135 30.30223659 479.92467022 30.30834225 C463.6662856 30.32441288 447.4079019 30.33030649 431.14951077 30.335091 C423.46146989 30.33742563 415.77342977 30.3410281 408.08538948 30.34478638 C381.7789518 30.35762208 355.47251454 30.36834184 329.1660738 30.37178898 C327.5142978 30.37201061 325.8625218 30.3722324 324.2107458 30.37245433 C322.55493803 30.37267497 320.89913026 30.37289545 319.24332249 30.37311578 C315.92137885 30.37355834 312.59943521 30.37400545 309.27749157 30.37445545 C308.45384086 30.37456484 307.63019014 30.37467423 306.78158032 30.37478694 C280.06356706 30.37841907 253.34558091 30.39434489 226.62757803 30.41764582 C198.39292326 30.44222451 170.15828398 30.45596088 141.9236182 30.4571569 C138.82609009 30.45732836 135.728562 30.45754379 132.6310339 30.45779133 C131.86831145 30.4578471 131.105589 30.45790287 130.31975375 30.45796032 C118.02942956 30.45911241 105.73913312 30.47014761 93.44881831 30.48467838 C81.10328166 30.49902243 68.75778071 30.50229222 56.41223802 30.49423841 C49.72008033 30.49016648 43.02802778 30.49132613 36.33587551 30.50529575 C30.21571314 30.51795502 24.09571562 30.51690781 17.97555374 30.50470504 C15.75551374 30.50273414 13.53546239 30.50589001 11.3154384 30.5145494 C8.3089701 30.52553863 5.30309424 30.5182277 2.29664326 30.50615788 C0.98923415 30.51755067 0.98923415 30.51755067 -0.34458727 30.52917361 C-5.04110024 30.48817809 -8.10805479 30.16552185 -11.93100452 27.13422108 C-15.23595718 23.0843885 -15.41970188 19.17948758 -15.36850452 14.13422108 C-15.38848499 13.4355492 -15.40846546 12.73687733 -15.4290514 12.01703358 C-15.42558691 8.3446797 -15.03963134 6.30195693 -13.02866077 3.19672108 C-9.08925065 -0.67666542 -5.24017201 -0.0087655 0 0 Z " fill="#000000" transform="translate(242.93100452423096,778.8657789230347)"/>
</svg>
