<?xml version="1.0" encoding="UTF-8"?>
<svg version="1.1" xmlns="http://www.w3.org/2000/svg" width="1024" height="1024">
<path d="M0 0 C337.92 0 675.84 0 1024 0 C1024 337.92 1024 675.84 1024 1024 C686.08 1024 348.16 1024 0 1024 C0 686.08 0 348.16 0 0 Z " fill="#F8F8F8" transform="translate(0,0)"/>
<path d="M0 0 C337.92 0 675.84 0 1024 0 C1024 337.92 1024 675.84 1024 1024 C686.08 1024 348.16 1024 0 1024 C0 686.08 0 348.16 0 0 Z M168 182 C167.06414062 182.92296875 166.12828125 183.8459375 165.1640625 184.796875 C126.89014919 224.49646416 123.51092737 275.73487306 123.60782599 327.91988623 C123.61469366 333.40535216 123.60409752 338.89079093 123.59588623 344.37625122 C123.58262771 355.0873377 123.58539129 365.79836069 123.59412415 376.50944953 C123.60093193 385.22427737 123.60180413 393.93908757 123.5985527 402.65391731 C123.598093 403.8998377 123.59763331 405.14575808 123.59715968 406.42943363 C123.59620038 408.96144001 123.59522774 411.49344638 123.5942419 414.02545274 C123.58595362 437.03023903 123.59451207 460.03499737 123.61026969 483.03977681 C123.62450159 503.97616194 123.62323083 524.9124923 123.60888672 545.84887695 C123.59277205 569.44762724 123.58653649 593.04635426 123.59572351 616.64511067 C123.59667904 619.16749608 123.59762215 621.6898815 123.5985527 624.21226692 C123.59901553 625.45293997 123.59947836 626.69361301 123.59995521 627.97188221 C123.60253215 636.66333976 123.59820221 645.35477771 123.59111404 654.04623222 C123.58265005 664.65675326 123.58508112 675.26720782 123.60095628 685.87772136 C123.6087739 691.27861976 123.61204357 696.67940783 123.60200882 702.0803051 C123.50778857 757.49961721 129.17585738 806.24705276 169 848 C169.80179688 848.86625 170.60359375 849.7325 171.4296875 850.625 C197.96177386 878.46194307 239.25916162 891.97342673 277.03418897 893.05842739 C282.77895366 893.15569292 288.52429446 893.14351062 294.2696991 893.14044189 C296.21739441 893.14302941 298.16508919 893.14604365 300.11278325 893.1494453 C305.44175436 893.15747333 310.77071197 893.15930252 316.09968841 893.16004276 C321.85665931 893.1619007 327.61362332 893.1694518 333.37059021 893.17617798 C345.94966848 893.1897327 358.52874355 893.19578176 371.1078279 893.20018864 C378.97166432 893.20295631 386.83549951 893.20719465 394.6993351 893.21169281 C416.49823911 893.22388251 438.29714198 893.23421723 460.09604931 893.2375679 C461.50406671 893.23778953 462.91208412 893.23801131 464.32010152 893.23823325 C465.73137593 893.23845389 467.14265033 893.23867437 468.55392474 893.2388947 C471.38482678 893.23933723 474.21572882 893.23978435 477.04663086 893.24023438 C477.74852268 893.24034377 478.45041451 893.24045316 479.17357578 893.24056586 C501.9085071 893.24419272 524.64340646 893.26010039 547.37832554 893.28342474 C571.45695579 893.30808212 595.53556767 893.32173681 619.6142109 893.32293582 C632.72304651 893.32384995 645.83184027 893.32953588 658.94066429 893.34775543 C670.10749322 893.3632218 681.27426736 893.3682386 692.44110497 893.36001733 C698.12925025 893.35613366 703.81728543 893.35692759 709.50541687 893.37107468 C765.82012977 893.50286909 816.47114706 886.84523263 858.5 845.9375 C877.45593884 826.97440347 888.76234111 802.59584366 895.25 776.875 C895.49645264 775.92947266 895.74290527 774.98394531 895.99682617 774.00976562 C900.04507553 757.07232688 900.30099621 739.38152692 900.25396729 722.05010986 C900.2562798 720.15066654 900.25946156 718.25122412 900.26342177 716.35178351 C900.27166962 711.20289286 900.26769084 706.0540776 900.26144934 700.90518689 C900.25688438 695.32507681 900.26392837 689.74497881 900.26940918 684.16487122 C900.27826135 673.26242349 900.27640009 662.36000344 900.2705839 651.45755467 C900.26605181 642.59238512 900.26546117 633.72722329 900.26763153 624.86205292 C900.267938 623.5963399 900.26824446 622.33062688 900.26856022 621.02655892 C900.26919972 618.45467283 900.26984814 615.88278674 900.2705054 613.31090066 C900.27603427 589.93057528 900.27031907 566.55026759 900.2598202 543.16994564 C900.25032605 521.86507942 900.25118388 500.56023711 900.26074219 479.25537109 C900.27146951 455.26523417 900.27565156 431.27511217 900.26951766 407.28497195 C900.26888061 404.72420931 900.26825187 402.16344667 900.26763153 399.60268402 C900.26732298 398.34297996 900.26701443 397.08327589 900.26669653 395.78539898 C900.26497427 386.93547399 900.26787445 378.08555752 900.27259064 369.23563385 C900.27821545 358.4443452 900.27664926 347.65308563 900.26602915 336.86180028 C900.26079462 331.36282762 900.2586777 325.86390334 900.26532745 320.36493111 C900.27133497 315.32058046 900.26793352 310.27632254 900.25737235 305.23198017 C900.25515857 303.41806395 900.25622843 301.60413972 900.26112393 299.79022875 C900.29900567 284.57372553 899.53160258 269.38663686 895.8125 254.5625 C895.49212769 253.2619165 895.49212769 253.2619165 895.1652832 251.93505859 C885.7706354 215.25563607 863.26505464 181.47513624 831 161 C815.30864779 151.74692594 799.33725203 144.66324956 781.6875 140.25 C780.90681152 140.05092041 780.12612305 139.85184082 779.32177734 139.64672852 C763.65250496 135.98784187 747.52770961 135.70429806 731.51992798 135.73930359 C729.52621645 135.7362751 727.53250609 135.73238216 725.53879774 135.72771102 C720.11528773 135.7175123 714.69184442 135.71959188 709.26832914 135.72389162 C703.39771548 135.72637371 697.52711728 135.71732644 691.6565094 135.70985413 C680.17712882 135.69714661 668.69777167 135.69530845 657.21838523 135.69765439 C647.88263209 135.69944195 638.54688447 135.69771527 629.21113205 135.69342995 C627.86581691 135.69282752 626.52050177 135.69222633 625.17518663 135.69162634 C623.14748571 135.69071901 621.11978478 135.68981034 619.09208387 135.68889399 C600.26186208 135.68047544 581.43164285 135.67612124 562.60141945 135.68030071 C561.89288183 135.68045709 561.18434422 135.68061346 560.45433577 135.68077458 C556.86387538 135.68158026 553.273415 135.68242603 549.68295462 135.68328788 C548.96998437 135.68345897 548.25701411 135.68363006 547.52243869 135.68380633 C546.08064375 135.68415299 544.63884881 135.68450152 543.19705386 135.68485192 C520.76481723 135.69020859 498.33261992 135.68227572 475.90039062 135.66381836 C450.64893509 135.64306524 425.3975039 135.63238181 400.14603937 135.63639385 C397.44952607 135.63678914 394.75301278 135.6371507 392.05649948 135.63749123 C391.39263719 135.63758196 390.7287749 135.63767269 390.04479557 135.63776617 C380.05959328 135.63892808 370.07441835 135.63227824 360.08922195 135.62167931 C348.72371863 135.60973654 337.35827318 135.60839312 325.99276902 135.62046947 C320.20178577 135.6263375 314.41090823 135.62751529 308.61993217 135.61546707 C303.30510947 135.60453856 297.99047984 135.60779359 292.6756659 135.62172876 C290.76672081 135.62435661 288.85776025 135.62207032 286.94883044 135.61399289 C242.02391653 135.43729385 200.14118728 150.12751718 168 182 Z " fill="#F9F9F9" transform="translate(0,0)"/>
<path d="M0 0 C1.98380509 -0.00258627 3.96760966 -0.00560016 5.95141351 -0.0090034 C11.38944804 -0.01704622 16.82746935 -0.01886146 22.26550913 -0.01960087 C28.13633482 -0.02145623 34.00715372 -0.02900612 39.87797546 -0.03573608 C53.38015524 -0.05000897 66.88233319 -0.05584414 80.38451911 -0.06042803 C87.06595709 -0.062768 93.74739424 -0.06637115 100.42883156 -0.07012341 C123.32800921 -0.08295764 146.2271864 -0.09367555 169.12636757 -0.09712601 C170.56269841 -0.09734763 171.99902925 -0.09756942 173.4353601 -0.09779136 C174.8750448 -0.09801199 176.3147295 -0.09823248 177.7544142 -0.09845281 C180.64237762 -0.09889534 183.53034103 -0.09934246 186.41830444 -0.09979248 C187.13434638 -0.09990187 187.85038832 -0.10001126 188.58812851 -0.10012397 C211.7799317 -0.10375059 234.97170355 -0.11965637 258.16349475 -0.14298284 C282.71835427 -0.16763484 307.2731959 -0.18130139 331.82806814 -0.18249393 C334.52898813 -0.18266536 337.22990811 -0.18288078 339.93082809 -0.18312836 C340.59580662 -0.18318413 341.26078515 -0.18323989 341.94591454 -0.18329735 C351.94425839 -0.18437257 361.94257226 -0.19369641 371.94090652 -0.20731354 C383.33179077 -0.22277298 394.72262133 -0.22780078 406.11351408 -0.21957543 C411.91696092 -0.21568919 417.72029983 -0.21649854 423.52373314 -0.23063278 C460.15096557 -0.31451455 494.12918661 0.54427455 527.62240601 17.14044189 C528.62159058 17.62384033 528.62159058 17.62384033 529.64096069 18.11700439 C543.31637267 24.775394 554.56403412 33.71504079 565.62240601 44.14044189 C566.34685913 44.80044189 567.07131226 45.46044189 567.81771851 46.14044189 C595.04950861 71.90815726 609.35887429 110.25080808 611.62240601 147.14044189 C611.76748429 153.34066473 611.76195962 159.53897819 611.75611877 165.74061584 C611.75798905 167.62771404 611.76029062 169.51481185 611.7629841 171.40190905 C611.76908201 176.56790951 611.76897087 181.73389374 611.76778972 186.89989698 C611.7675852 192.47959285 611.7731095 198.05928359 611.77784729 203.63897705 C611.78614413 214.56498813 611.78890172 225.49099381 611.78945967 236.41700778 C611.78993543 245.30433437 611.79199318 254.19165919 611.79516029 263.07898521 C611.80253334 284.20016502 611.80868536 305.32134373 611.80816174 326.44252491 C611.80814616 327.11747679 611.80813058 327.79242866 611.80811453 328.48783363 C611.80803143 331.90837548 611.80793239 335.32891733 611.80782982 338.74945918 C611.8077999 339.76836003 611.8077999 339.76836003 611.80776938 340.80784472 C611.80772894 342.18148991 611.80768714 343.5551351 611.80764399 344.92878029 C611.80703185 366.278882 611.81452756 387.62896779 611.82821655 408.97906494 C611.84360968 432.99662592 611.85216812 457.01417495 611.85125333 481.03174227 C611.85092209 493.73639218 611.85363686 506.44102416 611.86443138 519.14566994 C611.87356716 529.96711822 611.87568658 540.78854045 611.86892196 551.60999093 C611.86567182 557.12356158 611.86554512 562.63708232 611.87427521 568.15064812 C611.88220864 573.21353106 611.88063994 578.2763251 611.87199108 583.33920606 C611.87047096 585.1555424 611.87221489 586.9718856 611.87785115 588.78821383 C611.92810085 606.15371806 611.33241542 623.8732479 606.99740601 640.76544189 C606.73943237 641.79975342 606.48145874 642.83406494 606.21566772 643.89971924 C603.57847964 654.02683265 600.00165191 663.64434851 595.62240601 673.14044189 C595.31077515 673.81752197 594.99914429 674.49460205 594.67807007 675.19219971 C578.21204363 710.09320602 546.75976577 734.32756107 511.0965271 747.27667236 C498.21973558 751.77224059 485.14546034 754.47220066 471.62240601 756.14044189 C470.90226226 756.22963103 470.18211851 756.31882017 469.44015223 756.410712 C460.13381318 757.40400333 450.82617679 757.28586947 441.47969055 757.28088379 C439.53357099 757.28347075 437.58745195 757.28648483 435.64133364 757.28988719 C430.3120338 757.297922 424.98274745 757.2997448 419.65344226 757.30048466 C413.897798 757.30234144 408.14216063 757.30989203 402.38652039 757.31661987 C389.80731576 757.33018007 377.22811433 757.33622469 364.64890361 757.34063053 C356.78489728 757.34339764 348.92089217 757.34763592 341.05688667 757.3521347 C319.25802526 757.36432581 297.45916499 757.37465981 275.66030025 757.3780098 C274.25199643 757.37823142 272.8436926 757.37845321 271.43538878 757.37867515 C270.02381877 757.37889578 268.61224877 757.37911627 267.20067877 757.3793366 C264.36916792 757.37977913 261.53765708 757.38022625 258.70614624 757.38067627 C257.65308031 757.38084036 257.65308031 757.38084036 256.57874033 757.38100776 C233.84411573 757.38463378 211.10952312 757.40053754 188.37491076 757.42386663 C164.29759002 757.44852801 140.22028766 757.46217892 116.14295393 757.46337771 C103.03463048 757.4642917 89.92634889 757.46997378 76.81803703 757.48819733 C65.65011453 757.50366912 54.48224681 757.5086774 43.31431561 757.50045922 C37.62605338 757.49657725 31.93790124 757.49736089 26.24965286 757.51151657 C-28.35514002 757.6392332 -79.19106843 752.08990517 -119.94009399 711.89044189 C-160.89342028 670.58866388 -164.87215301 618.19542528 -164.769768 563.08983099 C-164.7628958 557.60303846 -164.77349858 552.11627298 -164.78170776 546.62948608 C-164.79496106 535.91820381 -164.79220524 525.20698504 -164.78346984 514.49570041 C-164.77666068 505.78136463 -164.77579045 497.0670465 -164.77904129 488.35270882 C-164.77950099 487.1066352 -164.77996069 485.86056158 -164.78043432 484.57672815 C-164.78139361 482.04439758 -164.78236625 479.51206702 -164.78335209 476.97973645 C-164.79163873 453.97673103 -164.7830843 430.97375356 -164.7673243 407.97075499 C-164.75308907 387.03421619 -164.75436634 366.09773217 -164.76870728 345.16119385 C-164.78481928 321.56098098 -164.79105926 297.96079138 -164.78187048 274.3605724 C-164.78091496 271.83850134 -164.77997184 269.31643028 -164.77904129 266.79435921 C-164.77857846 265.55384044 -164.77811564 264.31332167 -164.77763879 263.03521143 C-164.7750613 254.34277153 -164.77939291 245.65035122 -164.78647995 236.95791435 C-164.79494082 226.34848689 -164.79251916 215.73912592 -164.77663772 205.12970596 C-164.76881649 199.7289245 -164.76555685 194.32825342 -164.77558517 188.92747307 C-164.87132749 132.64284299 -157.89338866 84.91231111 -117.50259399 42.95294189 C-85.61843553 11.87470213 -43.44859266 -0.02267884 0 0 Z M-99.37759399 78.14044189 C-106.97839413 87.28426161 -112.46770814 97.35676622 -117.37759399 108.14044189 C-117.78751587 109.02216064 -118.19743774 109.90387939 -118.61978149 110.81231689 C-126.51190584 129.04373594 -127.68285049 148.75500629 -127.63829041 168.31774902 C-127.64131676 170.21868818 -127.64520865 172.11962612 -127.64988297 174.02056193 C-127.66010937 179.20613681 -127.6579949 184.39164214 -127.65370238 189.57722259 C-127.65122536 195.18474419 -127.66026141 200.79224947 -127.66773987 206.39976501 C-127.68046197 217.37101646 -127.68228366 228.34224339 -127.67993961 239.31350097 C-127.67815345 248.23556134 -127.67991246 257.15761429 -127.68416405 266.07967377 C-127.68475924 267.35159721 -127.68535443 268.62352066 -127.68596765 269.93398724 C-127.68717946 272.51827234 -127.68839359 275.10255744 -127.68961003 277.68684253 C-127.69739196 295.02749274 -127.70132011 312.36813858 -127.69729328 329.70878983 C-127.69713691 330.38601902 -127.69698053 331.0632482 -127.69681941 331.76099949 C-127.69601371 335.19295503 -127.69516794 338.62491056 -127.69430611 342.05686608 C-127.69413503 342.73838342 -127.69396394 343.41990076 -127.69378767 344.12207014 C-127.69344101 345.50026165 -127.69309248 346.87845315 -127.69274208 348.25664466 C-127.68738656 369.69465194 -127.69531366 391.13261807 -127.71377563 412.57061768 C-127.7345256 436.69329283 -127.74518155 460.81593615 -127.74120015 484.93862319 C-127.73929096 497.69733998 -127.74174811 510.45601929 -127.75591469 523.21472931 C-127.76785382 534.07680191 -127.76920503 544.93881396 -127.75712452 555.80088744 C-127.75125354 561.33641324 -127.75008691 566.87182842 -127.76212692 572.40734673 C-127.77304562 577.48660704 -127.76981182 582.56566517 -127.75586524 587.64491627 C-127.75323469 589.47050039 -127.75553242 591.29610066 -127.7636011 593.12166885 C-127.82854372 608.92749255 -126.55612632 624.75409209 -121.25259399 639.76544189 C-120.95328979 640.63169189 -120.6539856 641.49794189 -120.34561157 642.39044189 C-109.91575644 671.44598931 -89.20383134 694.80595124 -61.45132446 708.39483643 C-41.71331527 717.67861069 -21.28242428 720.76140047 0.33230591 720.63491821 C2.33869551 720.63810376 4.34508294 720.64304017 6.35146451 720.64955103 C11.80525823 720.66224862 17.25875013 720.65034367 22.7125237 720.63402247 C28.61710942 720.6207666 34.52166415 720.63078735 40.42625427 720.63778687 C51.96869496 720.64782975 63.51102033 720.63664 75.05344668 720.61808626 C84.43737248 720.60336453 93.82127081 720.59750005 103.20520782 720.59782791 C104.20822992 720.59785085 104.20822992 720.59785085 105.2315151 720.59787425 C107.94641839 720.59795608 110.66132168 720.59808732 113.37622497 720.59828587 C138.79755203 720.60009441 164.21881929 720.58026274 189.64012561 720.54942654 C212.19330981 720.52217017 234.74645157 720.5097047 257.2996521 720.51104736 C258.74853284 720.51112819 260.19741358 720.51120891 261.64629433 720.51128952 C262.36261719 720.51133022 263.07894006 720.51137092 263.81696968 720.51141286 C267.42334798 720.51161447 271.02972628 720.51179563 274.63610458 720.51195335 C275.3476929 720.51198678 276.05928122 720.51202021 276.79243283 720.51205465 C295.6780963 720.51278594 314.56375449 720.50369775 333.44941354 720.49130023 C334.45783663 720.49063941 334.45783663 720.49063941 335.48663191 720.48996524 C338.18959846 720.48818895 340.892565 720.4864121 343.59553151 720.48458333 C353.63769111 720.47783391 363.67984609 720.47513509 373.72200775 720.47416306 C385.14435329 720.47279581 396.56666532 720.46382485 407.98899665 720.44549744 C413.81174563 720.43629329 419.63445189 720.43015869 425.45720863 720.43268585 C430.79513911 720.4348902 436.1329754 720.42775286 441.47088626 720.4133888 C443.39384101 720.40978916 445.31680558 720.4094749 447.23976061 720.41292338 C480.60171909 720.46609272 511.37065507 712.93506138 536.62240601 690.14044189 C537.52474976 689.33219971 538.42709351 688.52395752 539.35678101 687.69122314 C560.38446276 667.8218459 573.82180693 638.10296508 574.75005651 609.16032422 C574.75632987 607.73416008 574.75730844 606.30796577 574.75383377 604.88179207 C574.7558864 604.08610679 574.75793904 603.29042152 574.76005387 602.47062457 C574.76569562 599.8118927 574.76427013 597.15321309 574.7628479 594.49447632 C574.76543317 592.56586837 574.76844678 590.63726096 574.7718513 588.70865428 C574.77990575 583.41413933 574.78171001 578.11963794 574.78244877 572.82511759 C574.78430206 567.11251876 574.79185086 561.39992693 574.79858398 555.68733215 C574.81215742 543.19732716 574.81819066 530.70732538 574.82259464 518.21731424 C574.82535909 510.41452752 574.82959685 502.61174203 574.83409882 494.80895615 C574.84629086 473.19463471 574.85662522 451.58031478 574.85997391 429.96599007 C574.86019554 428.56901977 574.86041732 427.17204948 574.86063926 425.77507918 C574.8608599 424.37480894 574.86108038 422.9745387 574.86130071 421.57426846 C574.86174325 418.76527158 574.86219037 415.95627471 574.86264038 413.14727783 C574.86274977 412.45081336 574.86285916 411.75434889 574.86297187 411.03677944 C574.86660014 388.46869642 574.88251213 365.90064556 574.90583074 343.33257485 C574.93046217 319.45009024 574.9441416 295.56762605 574.94534183 271.68512809 C574.94625735 258.67538369 574.95197879 245.66568141 574.97016144 232.65594864 C574.98559375 221.57519329 574.99066447 210.49449308 574.98242334 199.41372903 C574.97852775 193.76495867 574.97939292 188.11629922 574.99348068 182.46754265 C575.00628528 177.28567125 575.00496491 172.10399337 574.99288997 166.92212199 C574.99094426 165.05798673 574.99395863 163.19383744 575.00273433 161.32972182 C575.15266166 127.29899732 564.53616438 96.02478678 540.62240601 71.14044189 C519.51623924 50.32644596 489.97845665 36.94828216 460.14601517 37.00622082 C459.31463911 37.00386859 458.48326306 37.00151636 457.62669379 36.99909285 C454.84052228 36.99243527 452.05439776 36.99286009 449.26821899 36.99327087 C447.25044107 36.98997022 445.23266381 36.98624423 443.21488738 36.9821294 C437.66921076 36.97212403 432.12354496 36.96839495 426.57786059 36.96574008 C420.59664625 36.96183264 414.61544045 36.95225455 408.63423157 36.94352722 C394.87107595 36.92470797 381.10791971 36.91450808 367.3447549 36.90606654 C360.53811175 36.901856 353.73146949 36.89663451 346.92482708 36.89138201 C323.60874219 36.87349219 300.29265704 36.85849853 276.97656631 36.85106182 C275.51336268 36.85058707 274.05015905 36.85011118 272.58695541 36.84963416 C271.49856586 36.8492796 271.49856586 36.8492796 270.38818864 36.84891787 C266.71219208 36.84771671 263.03619553 36.84650125 259.36019897 36.84527588 C258.63069584 36.84503573 257.9011927 36.84479558 257.14958341 36.84454815 C233.51475807 36.83666098 209.879983 36.81324098 186.2451796 36.78071993 C161.23697661 36.74637219 136.22880301 36.72670603 111.22057605 36.72341758 C108.47167379 36.72300007 105.72277156 36.72252051 102.97386932 36.7219944 C102.29704898 36.72187121 101.62022863 36.72174802 100.92289858 36.72162109 C90.06004936 36.71929505 79.19725881 36.70366834 68.33443046 36.68315255 C57.40059169 36.66283143 46.46682624 36.65777854 35.53297231 36.66692319 C29.61671956 36.67145732 23.70065614 36.66963318 17.78442955 36.65016174 C12.35693348 36.63245392 6.92976378 36.63358939 1.50226387 36.64905903 C-0.45007675 36.65142358 -2.40244043 36.64717223 -4.35474595 36.63523038 C-41.1396429 36.42435649 -74.96051549 50.20615146 -99.37759399 78.14044189 Z " fill="#161617" transform="translate(288.3775939941406,135.85955810546875)"/>
<path d="M0 0 C0.95050315 -0.00297112 1.90100629 -0.00594224 2.88031256 -0.0090034 C6.07928498 -0.01770547 9.27822004 -0.01919992 12.47720337 -0.02069092 C14.76507141 -0.02531797 17.05293869 -0.03034248 19.34080505 -0.03573608 C25.56597091 -0.04887175 31.79112598 -0.05530716 38.01630354 -0.05974674 C41.90275309 -0.0626752 45.78919967 -0.06677955 49.67564774 -0.07125092 C60.43473668 -0.08336049 71.19382175 -0.09374264 81.9529171 -0.09712601 C82.98580247 -0.09745536 82.98580247 -0.09745536 84.03955422 -0.09779136 C84.7297955 -0.09800964 85.42003679 -0.09822791 86.13119447 -0.09845281 C87.52989666 -0.09889627 88.92859884 -0.09934284 90.32730103 -0.09979248 C91.3680088 -0.10012463 91.3680088 -0.10012463 92.42974098 -0.10046348 C103.67472513 -0.10441246 114.91964451 -0.12186988 126.16460364 -0.145152 C137.7078048 -0.16885889 149.25096422 -0.18106948 160.794191 -0.18249393 C167.27606414 -0.18354375 173.75784593 -0.18948943 180.2396965 -0.20731354 C186.3348819 -0.22374816 192.42990682 -0.22597214 198.52510643 -0.21717453 C200.76446778 -0.21640172 203.00383761 -0.22077883 205.24317741 -0.23063278 C208.29585626 -0.24327993 211.34796047 -0.23751477 214.40063477 -0.22705078 C215.73560535 -0.23913539 215.73560535 -0.23913539 217.09754503 -0.25146413 C222.9592536 -0.20434197 226.30378735 0.68565967 230.61557102 4.88000584 C232.33702976 8.0913214 232.20816102 10.67248369 232.21498108 14.30741882 C232.22305939 15.39143678 232.22305939 15.39143678 232.23130089 16.49735409 C232.24561109 18.9194907 232.23846943 21.34108316 232.23135376 23.76324463 C232.23705575 25.49954671 232.24401934 27.23584505 232.25215149 28.97213745 C232.27011715 33.68908193 232.26890811 38.40584073 232.2632091 43.12280917 C232.26012213 47.05931221 232.26620424 50.99577933 232.27224785 54.93227726 C232.2863027 64.2182485 232.28472385 73.50412777 232.27334595 82.7901001 C232.26186379 92.37297774 232.27593986 101.95557556 232.30274242 111.53841633 C232.32488712 119.76358019 232.33153958 127.98865613 232.32566601 136.2138477 C232.32229227 141.12742471 232.3247391 146.04082234 232.34191704 150.95437431 C232.35736448 155.57473391 232.3534552 160.19467845 232.33461189 164.81502151 C232.33091988 166.51094673 232.3340523 168.20690254 232.34449768 169.90279961 C232.3576681 172.21784077 232.34619681 174.53149986 232.32850647 176.84648132 C232.32829719 178.14193595 232.3280879 179.43739058 232.32787228 180.7721014 C231.743324 184.70552275 230.60229996 186.34827505 227.82730103 189.14044189 C224.38193988 190.86312247 220.40816322 190.28058212 216.61627197 190.27415466 C215.16623923 190.277553 215.16623923 190.277553 213.68691289 190.28101999 C210.42721914 190.28738205 207.16756673 190.28652921 203.90786743 190.28570557 C201.57911627 190.28869569 199.25036561 190.29209787 196.9216156 190.29588318 C190.58075594 190.30474246 184.23990976 190.3070621 177.89904451 190.30769897 C172.61302655 190.30864652 167.32701175 190.31232304 162.040995 190.31587106 C150.28646856 190.32369904 138.53194798 190.32653902 126.77741916 190.32586571 C125.71881479 190.32580577 125.71881479 190.32580577 124.63882446 190.32574463 C123.93222901 190.32570375 123.22563355 190.32566287 122.49762611 190.32562075 C111.04498978 190.32521426 99.59238632 190.33478373 88.1397595 190.348883 C76.38754555 190.3632372 64.63534765 190.3701537 52.88312471 190.36928922 C46.28224301 190.36903374 39.68139848 190.3719125 33.08052444 190.38246727 C26.87375518 190.3921203 20.66705887 190.39224669 14.46028709 190.38495064 C12.17858334 190.3839013 9.89687511 190.38628825 7.61517906 190.3923111 C4.50746496 190.39998476 1.40000566 190.39541694 -1.70770264 190.38768005 C-2.61684178 190.39282362 -3.52598092 190.39796718 -4.46266973 190.40326661 C-5.29496528 190.39866781 -6.12726083 190.39406902 -6.98477745 190.38933086 C-7.70212417 190.38954823 -8.41947089 190.3897656 -9.15855539 190.38998955 C-11.56920281 190.091316 -13.11878786 189.4323047 -15.17269897 188.14044189 C-17.66117045 184.40773468 -17.43101917 182.48074572 -17.44685364 178.01779175 C-17.45209032 177.28780043 -17.457327 176.55780911 -17.46272236 175.80569685 C-17.47775689 173.35293316 -17.47842826 170.90037745 -17.47909546 168.4475708 C-17.48671461 166.69171291 -17.49514169 164.93585837 -17.50431824 163.18000793 C-17.52629379 158.40520235 -17.5350662 153.63046082 -17.54014468 148.85561037 C-17.54378454 145.873707 -17.55002265 142.8918205 -17.55714607 139.90992355 C-17.58165086 129.5105185 -17.59469476 119.11116341 -17.59823608 108.71173096 C-17.60187251 99.01239448 -17.63177295 89.31337423 -17.67364067 79.61413443 C-17.7083096 71.29133599 -17.72378393 62.96864252 -17.72448212 54.64577234 C-17.72527607 49.6728716 -17.734069 44.70029284 -17.76247978 39.72746658 C-17.7886024 35.05044697 -17.79089828 30.37401763 -17.77482414 25.69695854 C-17.77300503 23.98005705 -17.77974201 22.26312208 -17.79564285 20.54629326 C-17.81602752 18.20251276 -17.80559915 15.86081234 -17.78742981 13.51705933 C-17.78944114 12.20555719 -17.79145247 10.89405506 -17.79352474 9.54281044 C-17.01301949 5.26533574 -15.53610612 3.80856522 -12.17269897 1.14044189 C-8.12653501 -0.20827943 -4.21956352 -0.00408766 0 0 Z " fill="#161616" transform="translate(245.17269897460938,493.85955810546875)"/>
<path d="M0 0 C1.40598386 -0.00307895 1.40598386 -0.00307895 2.84037143 -0.0062201 C6.01089393 -0.011917 9.18137336 -0.01042955 12.3519001 -0.00901413 C14.63606572 -0.01159622 16.92023088 -0.01460894 19.20439541 -0.01801753 C25.50443844 -0.02610902 31.80447009 -0.02787829 38.1045177 -0.028615 C44.19377568 -0.02979001 50.28302876 -0.03658773 56.37228337 -0.04269341 C72.68970452 -0.0587641 89.00712476 -0.06465766 105.32455241 -0.06944216 C113.04049773 -0.07177678 120.7564423 -0.07537925 128.47238704 -0.07913754 C154.87426525 -0.09197324 181.27614303 -0.10269301 207.67802429 -0.10614014 C209.33579546 -0.10636177 210.99356664 -0.10658355 212.65133781 -0.10680549 C214.31315558 -0.10702613 215.97497334 -0.10724661 217.63679111 -0.10746694 C220.97079269 -0.10790949 224.30479427 -0.10835661 227.63879585 -0.10880661 C228.46543625 -0.108916 229.29207665 -0.10902539 230.14376676 -0.1091381 C256.95878359 -0.11277023 283.77377341 -0.12869606 310.5887799 -0.15199697 C338.9258918 -0.17657561 367.26298825 -0.19031204 395.60011113 -0.19150805 C398.7088732 -0.19167952 401.81763526 -0.19189495 404.92639732 -0.19214249 C405.69188607 -0.19219826 406.45737482 -0.19225402 407.2460602 -0.19231148 C419.58101634 -0.19346357 431.91594482 -0.20449882 444.25089161 -0.21902954 C456.64123652 -0.23337352 469.03154587 -0.23664342 481.4218968 -0.22858956 C488.13835725 -0.22451761 494.85471874 -0.22567743 501.5711689 -0.23964691 C507.71353614 -0.25230602 513.85573914 -0.25125911 519.9981059 -0.2390562 C522.2262212 -0.23708527 524.45434783 -0.24024129 526.68244718 -0.24890056 C529.6998064 -0.25988948 532.71657528 -0.25257908 535.73391724 -0.24050903 C536.608732 -0.24810423 537.48354676 -0.25569942 538.38487107 -0.26352477 C543.07069136 -0.22276832 546.21032187 0.05517173 549.99279976 3.13142776 C552.75219938 7.2705272 552.39742099 10.64036983 552.43029976 15.50642776 C552.46317085 16.35720901 552.49604195 17.20799026 552.52990913 18.08455276 C552.53699898 18.91213089 552.54408882 19.73970901 552.55139351 20.59236526 C552.5648481 21.34308304 552.57830269 22.09380081 552.59216499 22.86726761 C551.64086713 26.4608873 549.89502309 27.84587444 546.99279976 30.13142776 C543.88790624 30.86250741 540.85529292 30.80287921 537.67703438 30.76063347 C536.73065062 30.76790067 535.78426687 30.77516788 534.80920482 30.7826553 C531.61951563 30.80098728 528.4310165 30.78351124 525.24133492 30.76634598 C522.93893822 30.7721039 520.63654611 30.78004278 518.33416367 30.7899822 C511.99291103 30.81092373 505.6520329 30.80050694 499.31077862 30.78505111 C493.17900415 30.77249415 487.0472683 30.7882102 480.91550452 30.80078794 C467.59712214 30.82713948 454.27885955 30.82482566 440.96046573 30.81039337 C429.30547974 30.79782531 417.65053771 30.79452753 405.99554634 30.80050659 C404.83677807 30.80107948 404.83677807 30.80107948 403.65460034 30.80166394 C400.51887649 30.80322058 397.38315267 30.80481258 394.24742887 30.80646276 C364.8201114 30.82176454 335.39287032 30.80787974 305.96556464 30.78097828 C279.80988855 30.75724948 253.65433416 30.75937258 227.49865913 30.78328323 C198.12584693 30.810045 168.75310224 30.82067943 139.38027954 30.80522192 C136.2502041 30.80361828 133.12012864 30.80205408 129.99005318 30.80050659 C128.83396065 30.79991351 128.83396065 30.79991351 127.65451272 30.79930845 C116.00563955 30.79361637 104.35681511 30.80028123 92.70794868 30.81290436 C79.46524615 30.82718291 66.22268235 30.82366459 52.97999716 30.79650064 C46.21891633 30.78309026 39.4580981 30.7782673 32.69701576 30.7947464 C26.51390001 30.80958925 20.33126232 30.80155105 14.14819026 30.77485864 C11.90533637 30.76924963 9.66244251 30.7721678 7.41961408 30.78423758 C4.38201508 30.79933693 1.34607591 30.78395827 -1.69143486 30.76063347 C-2.57209531 30.7723393 -3.45275576 30.78404513 -4.36010289 30.79610568 C-8.76609014 30.72799972 -10.47565354 30.55064982 -14.04999161 27.73162878 C-16.07117816 25.04643149 -16.63934166 23.95536427 -16.63610649 20.66267776 C-16.63804008 19.84412308 -16.63997368 19.02556839 -16.64196587 18.18220901 C-16.61811821 17.3404512 -16.59427055 16.49869339 -16.56970024 15.63142776 C-16.58065727 14.78966995 -16.5916143 13.94791214 -16.60290337 13.08064651 C-16.55439171 8.97332624 -16.33514532 6.66945183 -14.15954399 3.10017776 C-10.00140252 -0.7032765 -5.31681868 -0.01069697 0 0 Z " fill="#171717" transform="translate(244.00720024108887,715.8685722351074)"/>
<path d="M0 0 C0.94123385 -0.00235223 1.8824677 -0.00470446 2.85222378 -0.00712797 C6.04207148 -0.01384512 9.2318787 -0.01335893 12.4217329 -0.01294994 C14.71740999 -0.01624687 17.01308649 -0.01997207 19.30876225 -0.02409142 C25.64526797 -0.03413886 31.98176421 -0.03783261 38.31827676 -0.04048073 C44.44134466 -0.04349571 50.56440603 -0.05212257 56.68746915 -0.06002467 C73.09790757 -0.08088612 89.50834781 -0.09134122 105.9187964 -0.10015428 C113.67835579 -0.10435803 121.4379144 -0.10958036 129.19747313 -0.11483881 C155.74682794 -0.13272974 182.29618297 -0.14772718 208.84554291 -0.155159 C210.51284737 -0.15563376 212.18015183 -0.15610965 213.84745629 -0.15658666 C214.67430823 -0.15682303 215.50116017 -0.15705941 216.35306823 -0.15730295 C220.54247562 -0.15850418 224.73188301 -0.15971962 228.9212904 -0.16094494 C229.75269821 -0.16118509 230.58410602 -0.16142524 231.44070801 -0.16167267 C258.40792191 -0.16956878 285.37509188 -0.19300666 312.34228659 -0.22550088 C340.83770519 -0.25977402 369.33309808 -0.27950776 397.82853764 -0.28280324 C400.95472794 -0.28322079 404.08091822 -0.28370036 407.2071085 -0.28422642 C407.9768932 -0.28434961 408.7466779 -0.2844728 409.53978941 -0.28459973 C421.94454869 -0.28693481 434.34925705 -0.30261186 446.75399816 -0.32306826 C459.21504433 -0.34329203 471.67602915 -0.34881994 484.13708869 -0.33929763 C490.8920513 -0.33453063 497.64683813 -0.33675304 504.40178013 -0.35605907 C510.57938567 -0.37356326 516.75670288 -0.37279736 522.93431094 -0.35716178 C525.17524396 -0.35476622 527.4161963 -0.35920889 529.65709964 -0.37099043 C532.6919117 -0.38596411 535.72568275 -0.37653764 538.76046753 -0.36076355 C540.080338 -0.37609686 540.080338 -0.37609686 541.42687252 -0.39173993 C545.50788341 -0.34510932 547.56751621 -0.1778722 551.11034268 2.02698928 C553.37158593 4.45976536 553.70954222 5.45033573 553.73305798 8.72406483 C553.74272594 10.02440662 553.74272594 10.02440662 553.75258923 11.35101795 C553.73325329 12.24884998 553.71391735 13.14668201 553.69399548 14.07172108 C553.71333141 14.96568592 553.73266735 15.85965076 553.75258923 16.78070545 C553.71866698 21.35003244 553.56711266 23.48468288 550.71743298 27.20062733 C546.02966154 30.62311533 541.66924495 30.27690878 536.09302998 30.26564884 C535.15908415 30.26770148 534.22513833 30.26975411 533.26289111 30.27186894 C530.10385538 30.27756575 526.94486287 30.2760784 523.78582287 30.27466297 C521.50990685 30.27724506 519.23399129 30.28025779 516.95807636 30.28366637 C510.68083647 30.2917578 504.403608 30.29352713 498.12636352 30.29426384 C492.05912923 30.29592118 485.99190135 30.30223659 479.92467022 30.30834225 C463.6662856 30.32441288 447.4079019 30.33030649 431.14951077 30.335091 C423.46146989 30.33742563 415.77342977 30.3410281 408.08538948 30.34478638 C381.7789518 30.35762208 355.47251454 30.36834184 329.1660738 30.37178898 C327.5142978 30.37201061 325.8625218 30.3722324 324.2107458 30.37245433 C322.55493803 30.37267497 320.89913026 30.37289545 319.24332249 30.37311578 C315.92137885 30.37355834 312.59943521 30.37400545 309.27749157 30.37445545 C308.45384086 30.37456484 307.63019014 30.37467423 306.78158032 30.37478694 C280.06356706 30.37841907 253.34558091 30.39434489 226.62757803 30.41764582 C198.39292326 30.44222451 170.15828398 30.45596088 141.9236182 30.4571569 C138.82609009 30.45732836 135.728562 30.45754379 132.6310339 30.45779133 C131.86831145 30.4578471 131.105589 30.45790287 130.31975375 30.45796032 C118.02942956 30.45911241 105.73913312 30.47014761 93.44881831 30.48467838 C81.10328166 30.49902243 68.75778071 30.50229222 56.41223802 30.49423841 C49.72008033 30.49016648 43.02802778 30.49132613 36.33587551 30.50529575 C30.21571314 30.51795502 24.09571562 30.51690781 17.97555374 30.50470504 C15.75551374 30.50273414 13.53546239 30.50589001 11.3154384 30.5145494 C8.3089701 30.52553863 5.30309424 30.5182277 2.29664326 30.50615788 C0.98923415 30.51755067 0.98923415 30.51755067 -0.34458727 30.52917361 C-5.04110024 30.48817809 -8.10805479 30.16552185 -11.93100452 27.13422108 C-15.23595718 23.0843885 -15.41970188 19.17948758 -15.36850452 14.13422108 C-15.38848499 13.4355492 -15.40846546 12.73687733 -15.4290514 12.01703358 C-15.42558691 8.3446797 -15.03963134 6.30195693 -13.02866077 3.19672108 C-9.08925065 -0.67666542 -5.24017201 -0.0087655 0 0 Z " fill="#161717" transform="translate(242.93100452423096,778.8657789230347)"/>
<path d="M0 0 C0.94638376 -0.0072672 1.89276751 -0.01453441 2.86782956 -0.02202183 C6.05751875 -0.04035381 9.24601788 -0.02287777 12.43569946 -0.00571251 C14.73809616 -0.01147043 17.04048827 -0.01940931 19.34287071 -0.02934873 C25.68412335 -0.05029026 32.02500148 -0.03987348 38.36625576 -0.02441764 C44.49803023 -0.01186069 50.62976608 -0.02757673 56.76152986 -0.04015447 C70.07991224 -0.06650601 83.39817483 -0.0641922 96.71656865 -0.0497599 C108.37155464 -0.03719184 120.02649667 -0.03389406 131.68148804 -0.03987312 C132.84025631 -0.04044601 132.84025631 -0.04044601 134.02243404 -0.04103047 C137.15815789 -0.04258712 140.29388171 -0.04417911 143.42960551 -0.04582929 C172.85692298 -0.06113107 202.28416406 -0.04724627 231.71146974 -0.02034481 C257.86714583 0.00338399 284.02270022 0.00126089 310.17837524 -0.02264977 C339.55118745 -0.04941153 368.92393214 -0.06004596 398.29675484 -0.04458845 C401.42683028 -0.04298481 404.55690573 -0.04142061 407.6869812 -0.03987312 C408.84307373 -0.03928004 408.84307373 -0.03928004 410.02252166 -0.03867498 C421.67139483 -0.0329829 433.32021927 -0.03964776 444.96908569 -0.05227089 C458.21178823 -0.06654944 471.45435203 -0.06303112 484.69703722 -0.03586717 C491.45811805 -0.02245679 498.21893628 -0.01763383 504.98001862 -0.03411293 C511.16313437 -0.04895579 517.34577206 -0.04091758 523.52884412 -0.01422517 C525.77169801 -0.00861616 528.01459187 -0.01153433 530.2574203 -0.02360411 C533.29501929 -0.03870346 536.33095847 -0.0233248 539.36846924 0 C540.24912969 -0.01170583 541.12979014 -0.02341166 542.03713727 -0.03547221 C546.44286746 0.03262977 548.15237012 0.20959624 551.72603416 3.02900469 C553.74179924 5.70564302 554.32320292 6.81420044 554.34829712 10.0979557 C554.35796509 11.32578773 554.35796509 11.32578773 554.36782837 12.57842445 C554.34849243 13.42018227 554.32915649 14.26194008 554.30923462 15.1292057 C554.32857056 15.97096352 554.34790649 16.81272133 554.36782837 17.67998695 C554.36138306 18.49854164 554.35493774 19.31709633 554.34829712 20.1604557 C554.33983765 21.26743813 554.33983765 21.26743813 554.33120728 22.39678383 C553.30461443 25.93911025 551.56550821 27.3554879 548.68423462 29.6292057 C545.58441681 30.35959213 542.55720434 30.2989043 539.38408661 30.2556181 C538.43939123 30.2625857 537.49469585 30.26955331 536.52137333 30.27673206 C533.33741925 30.29405665 530.15466887 30.27556787 526.97073364 30.25739479 C524.67246239 30.26243699 522.37419505 30.26966327 520.07593679 30.27889293 C513.74607876 30.29788837 507.41660505 30.28554015 501.08675647 30.26817 C494.96599929 30.2537691 488.84527249 30.26765719 482.72451855 30.2784413 C469.43005825 30.30091788 456.13572491 30.29489098 442.84126444 30.2770052 C431.20721915 30.26144988 419.57321842 30.25558234 407.93916321 30.25934601 C407.16803737 30.25958281 406.39691154 30.25981961 405.60241826 30.26006359 C402.47232136 30.26103848 399.34222449 30.26205929 396.21212763 30.26314869 C366.83764466 30.27323621 337.46323998 30.25495439 308.08877542 30.22342833 C281.98010521 30.19556679 255.87152811 30.19060362 229.7628479 30.20562172 C223.07762405 30.20944402 216.3924002 30.21323878 209.70717621 30.21679211 C208.88419675 30.21722992 208.06121729 30.21766774 207.21329906 30.21811882 C185.40975682 30.22935358 163.60622145 30.22201344 141.80268145 30.20891136 C139.45713796 30.20752276 137.11159448 30.20614205 134.76605098 30.20477294 C133.21001963 30.20386356 131.65398828 30.20294088 130.09795694 30.20200483 C118.47002456 30.19520325 106.84211905 30.19787427 95.21418762 30.20495224 C81.99528755 30.21291066 68.77648127 30.20638187 55.55760181 30.1807772 C48.80870701 30.16806189 42.05997811 30.16217657 35.31107521 30.17331886 C29.139119 30.18331649 22.9674753 30.1749973 16.79555732 30.15173768 C14.55674153 30.14655329 12.31789802 30.14818497 10.07909411 30.15713234 C7.04714427 30.16824617 4.01626616 30.15498365 0.98438263 30.13536358 C0.10532652 30.1444424 -0.77372958 30.15352121 -1.67942375 30.16287515 C-5.75999884 30.11103157 -7.80585067 29.95126556 -11.33452463 27.72257084 C-15.03124149 23.81664564 -14.60193746 19.94853721 -14.69076538 14.8167057 C-14.72814819 14.00910805 -14.76553101 13.20151039 -14.80404663 12.36944008 C-14.81564819 11.58246742 -14.82724976 10.79549477 -14.83920288 9.98467445 C-14.85902222 9.26948647 -14.87884155 8.55429848 -14.89926147 7.81743813 C-12.84796394 0.12464324 -6.64663386 -0.08834775 0 0 Z " fill="#161616" transform="translate(242.31576538085938,422.37079429626465)"/>
<path d="M0 0 C1.258125 -0.03738281 2.51625 -0.07476562 3.8125 -0.11328125 C5.61847656 -0.13068359 5.61847656 -0.13068359 7.4609375 -0.1484375 C8.57001465 -0.16825684 9.6790918 -0.18807617 10.82177734 -0.20849609 C13.625 0.375 13.625 0.375 15.15843201 2.39405823 C16.95170273 6.039055 17.94387121 9.72705125 18.89331055 13.65356445 C19.09857361 14.47359451 19.30383667 15.29362457 19.51531982 16.13850403 C20.18861703 18.83655089 20.85021515 21.53732096 21.51171875 24.23828125 C21.97753659 26.11461463 22.44408434 27.99076695 22.91133118 29.866745 C24.13678173 34.79522306 25.35231803 39.72609419 26.5657959 44.65753174 C27.80675786 49.69309451 29.0570944 54.7263275 30.30664062 59.75976562 C32.75526683 69.62925463 35.19342404 79.50129754 37.625 89.375 C37.83940231 88.55053375 38.05380463 87.7260675 38.27470398 86.87661743 C40.31721142 79.02341617 42.36116774 71.17059366 44.40666485 63.31817055 C45.45767207 59.28327741 46.50816077 55.24825091 47.55737305 51.21289062 C50.23140256 40.92958156 52.91741802 30.64952899 55.625 20.375 C56.05138763 18.75386292 56.05138763 18.75386292 56.48638916 17.09997559 C57.17666228 14.4888062 57.87629169 11.88046138 58.58203125 9.2734375 C58.76803391 8.56820953 58.95403656 7.86298157 59.14567566 7.13638306 C59.95067124 4.21125334 60.43953811 2.56046189 62.625 0.375 C66.91854942 -0.11109303 71.24458082 0.00460087 75.5625 0 C77.37137695 -0.03673828 77.37137695 -0.03673828 79.21679688 -0.07421875 C80.94833008 -0.08001953 80.94833008 -0.08001953 82.71484375 -0.0859375 C83.77566162 -0.09415527 84.83647949 -0.10237305 85.92944336 -0.11083984 C88.625 0.375 88.625 0.375 90.15170288 1.89505005 C92.15124957 5.26081765 92.9861259 8.77069977 93.89331055 12.54003906 C94.09857361 13.3599231 94.30383667 14.17980713 94.51531982 15.02453613 C95.18973642 17.72776378 95.85076735 20.43407652 96.51171875 23.140625 C96.97743452 25.01841281 97.44398338 26.89599417 97.91133118 28.77337646 C99.13781937 33.70984174 100.35297469 38.64902903 101.5657959 43.58886719 C102.80591534 48.63124919 104.05672569 53.67097647 105.30664062 58.7109375 C107.75656796 68.59638857 110.19453173 78.48474809 112.625 88.375 C114.59888303 84.87879204 115.49677211 81.35702475 116.45678711 77.47021484 C116.62782455 76.78343658 116.798862 76.09665833 116.9750824 75.3890686 C117.53850712 73.12240941 118.09534361 70.85418314 118.65234375 68.5859375 C119.04538139 67.00123346 119.4389081 65.41665065 119.832901 63.83218384 C120.86979135 59.65802561 121.90144318 55.48259223 122.93157959 51.3067627 C124.57549102 44.64492177 126.2256012 37.98462241 127.87896919 31.32512283 C128.45228631 29.01161067 129.02232735 26.69730956 129.59202576 24.38290405 C134.83220455 3.16779545 134.83220455 3.16779545 137.625 0.375 C140.11523438 0.11621094 140.11523438 0.11621094 143.21875 0.109375 C144.33121094 0.10679687 145.44367188 0.10421875 146.58984375 0.1015625 C147.75644531 0.10929688 148.92304687 0.11703125 150.125 0.125 C151.29160156 0.11726562 152.45820312 0.10953125 153.66015625 0.1015625 C154.77261719 0.10414063 155.88507813 0.10671875 157.03125 0.109375 C158.05541016 0.11163086 159.07957031 0.11388672 160.13476562 0.11621094 C162.625 0.375 162.625 0.375 164.625 2.375 C165.19648032 11.07854921 161.78343392 20.26745222 159.57421875 28.61328125 C159.1589712 30.20428673 158.74437419 31.79546211 158.3303833 33.38679504 C157.22748614 37.61810496 156.11523223 41.84689804 155.00053024 46.07511139 C153.85160995 50.43745785 152.70965888 54.80162897 151.56665039 59.16552734 C149.75836478 66.06527257 147.94430637 72.96347803 146.12695312 79.86083984 C144.27555314 86.88870404 142.44008732 93.92046195 140.61772156 100.95591736 C139.51946434 105.19226373 138.41313882 109.42646644 137.30410767 113.66000366 C136.81236888 115.54312382 136.32386733 117.42709249 135.8387146 119.31192017 C135.18204519 121.85902501 134.51282223 124.40247673 133.83984375 126.9453125 C133.65633362 127.66966995 133.47282349 128.3940274 133.28375244 129.14033508 C131.558205 135.55512523 131.558205 135.55512523 128.625 137.375 C124.50981621 138.02147643 120.34770234 137.83816586 116.1875 137.8125 C114.46950195 137.8424707 114.46950195 137.8424707 112.71679688 137.87304688 C111.61529297 137.87240234 110.51378906 137.87175781 109.37890625 137.87109375 C107.86792358 137.87387329 107.86792358 137.87387329 106.32641602 137.87670898 C102.6648402 137.19667841 101.77744642 136.44607322 99.625 133.375 C98.23264628 129.85234682 97.23601249 126.24391824 96.234375 122.59375 C95.92833344 121.51950775 95.62229187 120.4452655 95.30697632 119.33847046 C94.31733273 115.85399771 93.34612833 112.36467337 92.375 108.875 C91.70292561 106.49720056 91.02958498 104.11975865 90.35498047 101.74267578 C88.72172149 95.97880041 87.10184999 90.21127029 85.48596191 84.44250488 C83.92865605 78.89400934 82.34978902 73.35170299 80.76660156 67.81054688 C80.10624911 65.49772745 79.44915989 63.18397292 78.79589844 60.86914062 C78.51520508 59.87849609 78.23451172 58.88785156 77.9453125 57.8671875 C77.71086426 57.03558105 77.47641602 56.20397461 77.23486328 55.34716797 C76.66876369 53.32668624 76.66876369 53.32668624 75.625 51.375 C75.16613403 52.9849585 75.16613403 52.9849585 74.69799805 54.62744141 C71.85937984 64.58427452 69.0145632 74.53931399 66.16416931 84.49278259 C64.51763571 90.24530473 62.87901353 95.99999074 61.24809265 101.75695801 C60.25989194 105.24056741 59.26582477 108.72248465 58.27041626 112.20404053 C57.80053645 113.85243812 57.33320708 115.50156497 56.86849976 117.15142822 C56.21978538 119.45317442 55.56211708 121.75218462 54.90234375 124.05078125 C54.62176117 125.05899178 54.62176117 125.05899178 54.33551025 126.08757019 C53.13431672 130.22833237 51.73669701 134.26330299 48.625 137.375 C44.34075443 137.68418555 40.04402937 137.6534204 35.75 137.6875 C34.53957031 137.71650391 33.32914063 137.74550781 32.08203125 137.77539062 C30.92316406 137.78376953 29.76429688 137.79214844 28.5703125 137.80078125 C27.50312988 137.81536377 26.43594727 137.82994629 25.33642578 137.8449707 C22.625 137.375 22.625 137.375 21.0776825 135.75372314 C19.29997753 132.84278564 18.53561729 130.14728901 17.6706543 126.84545898 C17.49737232 126.19431783 17.32409035 125.54317667 17.1455574 124.87230396 C16.57162454 122.70737511 16.01053288 120.5393254 15.44921875 118.37109375 C15.04370644 116.83276192 14.63732069 115.2946601 14.2301178 113.7567749 C13.13990297 109.6313133 12.06020471 105.50316708 10.98240662 101.37444687 C9.19419989 94.53574651 7.38580892 87.70232944 5.58102036 80.86799049 C4.90124242 78.2927027 4.22260043 75.71711719 3.54397583 73.14152527 C0.82413028 62.83126394 -1.95378801 52.53932147 -4.80859375 42.265625 C-5.14002884 41.07159561 -5.47146393 39.87756622 -5.8129425 38.64735413 C-7.33508053 33.17322261 -8.86781944 27.70225803 -10.41137695 22.23413086 C-10.94633931 20.31630289 -11.481102 18.39841922 -12.015625 16.48046875 C-12.25836655 15.63393738 -12.50110809 14.78740601 -12.75120544 13.91522217 C-13.93636444 9.63792098 -14.75282874 5.86193597 -14.375 1.375 C-11.64469533 -1.35530467 -3.67206899 0.04113316 0 0 Z " fill="#171717" transform="translate(508.375,244.625)"/>
<path d="M0 0 C22.3591921 -1.5632486 22.3591921 -1.5632486 28.42236328 1.7578125 C31.78656843 4.98179883 33.49562695 9.06630003 35.25732422 13.31640625 C37.03603094 17.29168277 39.51005089 20.82146216 41.89453125 24.45361328 C42.91606104 26.07132542 43.93417921 27.69119594 44.94921875 29.31298828 C48.60921159 35.12917025 52.31251475 40.91732489 56.01953125 46.70361328 C56.68364014 47.7405835 57.34774902 48.77755371 58.03198242 49.84594727 C61.24372279 54.85955515 64.45748205 59.87186555 67.67251587 64.88336182 C69.15977948 67.2020677 70.64629355 69.52125357 72.13269043 71.84051514 C73.18958036 73.48889596 74.24761271 75.13654411 75.30566406 76.78417969 C75.94213867 77.77724121 76.57861328 78.77030273 77.234375 79.79345703 C77.79761475 80.67122803 78.36085449 81.54899902 78.94116211 82.45336914 C80.26953125 84.57861328 80.26953125 84.57861328 81.26953125 86.57861328 C81.59953125 58.19861328 81.92953125 29.81861328 82.26953125 0.57861328 C91.50953125 0.57861328 100.74953125 0.57861328 110.26953125 0.57861328 C112.86006585 3.16914789 112.52446815 4.20454276 112.53695679 7.81016541 C112.54548676 8.91924759 112.55401672 10.02832977 112.56280518 11.17102051 C112.5618988 12.39341431 112.56099243 13.61580811 112.56005859 14.87524414 C112.56677582 16.15818863 112.57349304 17.44113312 112.58041382 18.76295471 C112.5981134 22.28773766 112.60277083 25.81242357 112.60404539 29.33724666 C112.60594214 32.27721804 112.61329704 35.21716669 112.62038958 38.15712935 C112.63668598 45.09182511 112.64155738 52.02646893 112.64013672 58.96118164 C112.63893476 66.12083077 112.66004424 73.28017869 112.69162405 80.43975157 C112.7177521 86.58162831 112.72850549 92.72340647 112.7272259 98.86533839 C112.72671526 102.53589713 112.73245416 106.20618829 112.753582 109.87669182 C112.77649318 113.96886757 112.76746492 118.06036598 112.75537109 122.15258789 C112.76661011 123.37295746 112.77784912 124.59332703 112.78942871 125.85067749 C112.78103973 126.9625795 112.77265076 128.07448151 112.76400757 129.22007751 C112.7650971 130.18812789 112.76618664 131.15617826 112.76730919 132.1535635 C112.26953125 134.57861328 112.26953125 134.57861328 110.41121864 136.38727665 C105.90013468 138.89661559 100.36463024 138.08957158 95.33203125 138.07861328 C94.15189453 138.10697266 92.97175781 138.13533203 91.75585938 138.16455078 C90.61697266 138.16712891 89.47808594 138.16970703 88.3046875 138.17236328 C87.26707275 138.17945313 86.22945801 138.18654297 85.16040039 138.19384766 C80.62832438 137.22933186 78.6012805 134.53988355 76.05570984 130.79101562 C74.74809068 128.70627234 73.49855014 126.59443775 72.2578125 124.46923828 C68.32650966 117.89041431 64.2663041 111.42990433 60 105.06298828 C59.46521027 104.26453491 58.93042053 103.46608154 58.37942505 102.64343262 C56.74132814 100.20333006 55.09969564 97.76564294 53.45703125 95.32861328 C44.17634384 81.54613106 35.13269914 67.63367757 26.26953125 53.57861328 C26.26366501 54.58672562 26.25779877 55.59483795 26.25175476 56.63349915 C26.194592 66.12463535 26.12186442 75.61554102 26.03381634 85.10644245 C25.98905003 89.98606535 25.94980785 94.86560355 25.9230957 99.74536133 C25.89712501 104.45282905 25.85676723 109.15997189 25.80634499 113.867239 C25.78963396 115.66496941 25.77814613 117.46275607 25.77191734 119.26055336 C25.76232207 121.77488045 25.73431895 124.28836842 25.7019043 126.80249023 C25.70333939 127.54911423 25.70477448 128.29573822 25.70625305 129.06498718 C25.61445597 134.08507124 25.61445597 134.08507124 23.89851379 136.5403595 C21.52100151 138.05569871 19.63395338 137.96728312 16.83203125 137.97705078 C15.24261719 137.98285156 15.24261719 137.98285156 13.62109375 137.98876953 C12.51507813 137.97716797 11.4090625 137.96556641 10.26953125 137.95361328 C9.16351563 137.96521484 8.0575 137.97681641 6.91796875 137.98876953 C5.85835938 137.98490234 4.79875 137.98103516 3.70703125 137.97705078 C2.73636719 137.97366699 1.76570312 137.9702832 0.765625 137.96679688 C-2.22976225 137.50096494 -2.92305276 136.96824638 -4.73046875 134.57861328 C-5.10519886 132.17197418 -5.10519886 132.17197418 -5.10469055 129.26477051 C-5.11170486 128.16272781 -5.11871918 127.06068512 -5.12594604 125.92524719 C-5.11830231 124.71579941 -5.11065857 123.50635162 -5.1027832 122.26025391 C-5.10643387 120.98691696 -5.11008453 119.71358002 -5.11384583 118.4016571 C-5.1232589 114.90784249 -5.11382611 111.41430782 -5.1005137 107.92051506 C-5.08920567 104.26638619 -5.0933062 100.61227122 -5.09526062 96.95812988 C-5.0961438 90.82132386 -5.0850582 84.68462826 -5.06665039 78.54785156 C-5.04548235 71.45017791 -5.04197273 64.35266604 -5.04821235 57.25496721 C-5.05390472 50.43071383 -5.04826185 43.6065175 -5.0370388 36.78227234 C-5.03239113 33.8764287 -5.03151969 30.97061991 -5.03362465 28.06477356 C-5.03585597 24.00875351 -5.02140691 19.9529606 -5.00512695 15.89697266 C-5.00760437 14.68752487 -5.01008179 13.47807709 -5.01263428 12.23197937 C-5.00554947 11.12993668 -4.99846466 10.02789398 -4.99116516 8.89245605 C-4.98911229 7.93307884 -4.98705942 6.97370163 -4.98494434 5.98525238 C-4.592756 2.27622946 -3.69168339 0.78230415 0 0 Z " fill="#171717" transform="translate(251.73046875,244.42138671875)"/>
<path d="M0 0 C1.16808701 0.00067978 1.16808701 0.00067978 2.35977173 0.00137329 C3.1760051 -0.00198532 3.99223846 -0.00534393 4.83320618 -0.00880432 C7.545283 -0.01834336 10.25729829 -0.0202589 12.96939087 -0.02133179 C14.84647142 -0.0245423 16.72355171 -0.02790621 18.60063171 -0.03141785 C22.54085877 -0.0374165 26.48106386 -0.03925699 30.42129517 -0.03866577 C35.48021345 -0.0385641 40.53899152 -0.05221786 45.59787655 -0.06943798 C49.47623852 -0.08053465 53.35456635 -0.0825857 57.23294258 -0.08205605 C59.09853155 -0.08323963 60.96412131 -0.08768246 62.82969475 -0.09538841 C65.43487352 -0.10514148 68.03974468 -0.10232896 70.64492798 -0.09628296 C71.42162842 -0.10190247 72.19832886 -0.10752197 72.99856567 -0.11331177 C78.33873161 -0.08167855 78.33873161 -0.08167855 80.56704712 2.14663696 C80.82583618 4.45327759 80.82583618 4.45327759 80.83267212 7.30288696 C80.83653931 8.83622681 80.83653931 8.83622681 80.84048462 10.40054321 C80.83275024 11.47175415 80.82501587 12.54296509 80.81704712 13.64663696 C80.82864868 15.25345337 80.82864868 15.25345337 80.84048462 16.89273071 C80.83790649 17.91495728 80.83532837 18.93718384 80.83267212 19.99038696 C80.83041626 20.93075806 80.8281604 21.87112915 80.82583618 22.83999634 C80.56704712 25.14663696 80.56704712 25.14663696 78.56704712 27.14663696 C76.27648926 27.387146 76.27648926 27.387146 73.38296509 27.37368774 C72.30199554 27.37353668 71.221026 27.37338562 70.1072998 27.37322998 C68.93643829 27.36290741 67.76557678 27.35258484 66.55923462 27.34194946 C64.76559982 27.33770462 64.76559982 27.33770462 62.93572998 27.33337402 C59.10440193 27.32215001 55.2733049 27.29704127 51.44204712 27.27163696 C48.84960257 27.26161004 46.25715437 27.25248369 43.66470337 27.24429321 C37.29865664 27.22390229 30.93311146 27.18475711 24.56704712 27.14663696 C24.56704712 36.38663696 24.56704712 45.62663696 24.56704712 55.14663696 C29.72974243 55.11183228 29.72974243 55.11183228 34.99673462 55.07632446 C38.31948477 55.06073999 41.6422309 55.04858838 44.96499634 55.03677368 C47.27946791 55.02669804 49.59392671 55.01303721 51.90835571 54.99575806 C55.22951405 54.97157832 58.55050452 54.96016966 61.87173462 54.95132446 C62.91135345 54.94100189 63.95097229 54.93067932 65.02209473 54.92004395 C65.98293976 54.91989288 66.94378479 54.91974182 67.93374634 54.91958618 C69.20615677 54.91292435 69.20615677 54.91292435 70.50427246 54.90612793 C72.56704712 55.14663696 72.56704712 55.14663696 74.56704712 57.14663696 C74.82583618 59.45327759 74.82583618 59.45327759 74.83267212 62.30288696 C74.83653931 63.83622681 74.83653931 63.83622681 74.84048462 65.40054321 C74.83275024 66.47175415 74.82501587 67.54296509 74.81704712 68.64663696 C74.82864868 70.25345337 74.82864868 70.25345337 74.84048462 71.89273071 C74.83790649 72.91495728 74.83532837 73.93718384 74.83267212 74.99038696 C74.83041626 75.93075806 74.8281604 76.87112915 74.82583618 77.83999634 C74.56704712 80.14663696 74.56704712 80.14663696 72.56704712 82.14663696 C70.46630859 82.387146 70.46630859 82.387146 67.84194946 82.37368774 C66.37065079 82.37346115 66.37065079 82.37346115 64.86962891 82.37322998 C63.80813629 82.36290741 62.74664368 82.35258484 61.65298462 82.34194946 C60.56820831 82.33911957 59.48343201 82.33628967 58.36578369 82.33337402 C54.89109399 82.32215274 51.4166593 82.29704459 47.94204712 82.27163696 C45.59048833 82.26160968 43.23892552 82.2524834 40.88735962 82.24429321 C35.11374413 82.22390615 29.34068206 82.18476074 23.56704712 82.14663696 C23.56704712 91.38663696 23.56704712 100.62663696 23.56704712 110.14663696 C27.50255493 110.11183228 31.43806274 110.07702759 35.49282837 110.04116821 C39.29547398 110.01778629 43.09811165 109.99956187 46.90078735 109.98184204 C49.54795911 109.96673577 52.19510576 109.94624966 54.8421936 109.9203186 C58.64246813 109.88401705 62.44241238 109.86692893 66.24282837 109.85366821 C68.02418938 109.83044243 68.02418938 109.83044243 69.84153748 109.80674744 C70.94245224 109.80652084 72.043367 109.80629425 73.17764282 109.80606079 C74.63325371 109.79606804 74.63325371 109.79606804 76.11827087 109.78587341 C78.56704712 110.14663696 78.56704712 110.14663696 80.37962341 111.52912903 C81.99296108 113.72681673 81.95463337 115.21817602 81.96548462 117.92788696 C81.96935181 118.85214478 81.97321899 119.77640259 81.97720337 120.72866821 C81.96560181 121.6915979 81.95400024 122.65452759 81.94204712 123.64663696 C81.95364868 124.60956665 81.96525024 125.57249634 81.97720337 126.56460571 C81.97333618 127.48886353 81.96946899 128.41312134 81.96548462 129.36538696 C81.96210083 130.21036743 81.95871704 131.0553479 81.95523071 131.92593384 C81.56704712 134.14663696 81.56704712 134.14663696 80.54402161 135.76116943 C77.45402411 137.92664564 74.18666095 137.56346594 70.54727173 137.53482056 C69.3224836 137.54270599 69.3224836 137.54270599 68.07295227 137.55075073 C65.37157109 137.56396453 62.67077813 137.55520872 59.96939087 137.54507446 C58.09516791 137.54709461 56.22094572 137.55000555 54.34672546 137.55377197 C50.41838092 137.55819703 46.49024095 137.55175771 42.56192017 137.53775024 C37.51864589 137.52064646 32.47585012 137.53050592 27.43259335 137.54846764 C23.56278352 137.55929053 19.69308781 137.55586623 15.82327461 137.54808426 C13.96327216 137.54607872 12.10325945 137.54855387 10.24326897 137.55552292 C7.64770798 137.56311422 5.05293037 137.55156687 2.45742798 137.53482056 C1.68386963 137.54089325 0.91031128 137.54696594 0.11331177 137.55322266 C-2.02366638 137.52758789 -2.02366638 137.52758789 -5.43295288 137.14663696 C-7.97356434 133.33571978 -7.69307607 130.29961025 -7.64364624 125.88760376 C-7.64203806 125.04414461 -7.64042988 124.20068546 -7.63877296 123.33166695 C-7.63076221 120.52376253 -7.60816189 117.71617554 -7.58529663 114.90835571 C-7.57617035 112.92672547 -7.5677962 110.94509164 -7.56013489 108.9634552 C-7.53675192 103.73811403 -7.49982116 98.51296542 -7.45793915 93.28774261 C-7.43362632 90.23129765 -7.41161137 87.17484483 -7.39028931 84.11837769 C-7.30654261 72.36437769 -7.19324012 60.61087466 -7.06063843 48.85733032 C-7.00404846 43.82543444 -6.95445311 38.79349205 -6.90623569 33.7615099 C-6.86753783 29.83177298 -6.82442886 25.9020939 -6.78001213 21.97241783 C-6.75968626 20.11160637 -6.74095767 18.25077673 -6.72387886 16.38993263 C-6.69999127 13.83715814 -6.66996093 11.28452991 -6.63827515 8.73184204 C-6.63251968 7.97234756 -6.62676422 7.21285309 -6.62083435 6.43034363 C-6.53215506 0.20983823 -6.20897922 0.03754743 0 0 Z " fill="#171717" transform="translate(398.4329528808594,244.85336303710938)"/>
<path d="M0 0 C6.9468285 6.39875525 11.22905489 14.71289314 12.94140625 23.94140625 C12.9375 26 12.9375 26 10.9375 29 C8.01396042 29.5544644 5.26329366 29.93019079 2.3125 30.1875 C1.13880859 30.3102832 1.13880859 30.3102832 -0.05859375 30.43554688 C-2.39181326 30.66577334 -4.72367577 30.83776081 -7.0625 31 C-7.8040332 31.07718262 -8.54556641 31.15436523 -9.30957031 31.23388672 C-11.4296875 31.37890625 -11.4296875 31.37890625 -15.0625 31 C-17.09375 28.734375 -17.09375 28.734375 -18.5625 25.75 C-21.13463856 21.24875752 -22.94856925 18.44475169 -27.828125 16.515625 C-35.33328442 14.78366513 -42.23394266 15.5258217 -49.0625 19 C-52.8128129 22.92257091 -52.8128129 22.92257091 -54.1171875 27.98828125 C-53.80122221 32.07522359 -53.47078385 34.4432493 -51 37.8125 C-42.4512051 44.17862386 -31.99428766 46.84210932 -21.97387695 50.06738281 C-13.60813238 52.7715005 -6.09663922 55.54766619 0.9375 61 C1.824375 61.598125 2.71125 62.19625 3.625 62.8125 C9.635434 68.49804567 13.52152351 75.41942168 14.2734375 83.69921875 C14.40512157 97.14416186 11.47514939 107.78313385 2.16015625 117.9375 C-10.67633923 130.11773293 -28.33899931 131.72156691 -45.1953125 131.28125 C-50.83960466 131.02322522 -55.83120639 130.18658171 -61.0625 128 C-62.56683594 127.37931641 -62.56683594 127.37931641 -64.1015625 126.74609375 C-75.29027118 121.65148322 -81.76233621 114.63598672 -86.7734375 103.4921875 C-88.42172139 99.0268366 -89.3951578 94.67395925 -88.0625 90 C-83.39004625 86.88503084 -78.55664246 87.67149143 -73.0625 87.6875 C-71.95648437 87.67138672 -70.85046875 87.65527344 -69.7109375 87.63867188 C-68.65132812 87.63802734 -67.59171875 87.63738281 -66.5 87.63671875 C-65.52933594 87.63373779 -64.55867187 87.63075684 -63.55859375 87.62768555 C-60.6563839 88.06057581 -59.81958224 88.70519303 -58.0625 91 C-57.0703125 92.90234375 -57.0703125 92.90234375 -56.1875 94.9375 C-54.00480337 99.46057857 -51.39473799 101.85869205 -46.859375 104.078125 C-40.18648781 106.27756826 -30.82422444 106.31808196 -24.375 103.3125 C-21.17348045 101.30370342 -18.86866392 99.38655736 -17.0625 96 C-16.15918217 91.35436544 -16.53447059 88.03575 -18.6875 83.8125 C-25.84072775 76.63962052 -38.39145886 74.18109295 -47.75 71 C-55.63828743 68.31176303 -63.12054044 65.71061542 -70.0625 61 C-70.70703125 60.56558594 -71.3515625 60.13117188 -72.015625 59.68359375 C-79.28230901 54.13879791 -84.05007095 45.81272248 -86.0625 37 C-86.90849198 27.90066761 -86.45331275 20.09317054 -82.0625 12 C-81.505625 10.96875 -80.94875 9.9375 -80.375 8.875 C-71.29064189 -2.41906684 -59.73895188 -7.74151979 -45.8125 -10.6875 C-29.58796791 -12.03954434 -13.19221195 -10.33848868 0 0 Z " fill="#171717" transform="translate(771.0625,253)"/>
<path d="M0 0 C0.96020674 -0.00507454 1.92041347 -0.01014909 2.90971738 -0.0153774 C3.96689692 -0.01587516 5.02407646 -0.01637292 6.11329174 -0.01688576 C7.23459852 -0.02126801 8.3559053 -0.02565027 9.51119107 -0.03016531 C13.28824285 -0.04357599 17.06527128 -0.04973724 20.84234142 -0.0558567 C23.54237685 -0.06322836 26.24240738 -0.07201935 28.94243908 -0.08063698 C37.05844569 -0.10515647 45.17445841 -0.11978628 53.29049066 -0.13269705 C55.58236411 -0.13640893 57.87423695 -0.14038215 60.1661098 -0.14444971 C74.39573486 -0.1696832 88.62536087 -0.1917381 102.85500336 -0.20417786 C106.1507502 -0.20710758 109.446497 -0.21006925 112.74224377 -0.21308327 C113.56139246 -0.21382932 114.38054116 -0.21457537 115.22451254 -0.21534403 C128.49934596 -0.22800237 141.77404558 -0.26123239 155.04881642 -0.3028851 C168.6746308 -0.34528928 182.30037664 -0.36887101 195.92625684 -0.37409842 C203.5780213 -0.37751398 211.22957656 -0.38928619 218.88127613 -0.42220116 C225.3966041 -0.4501819 231.91167999 -0.46120975 238.42706338 -0.4500057 C241.7516102 -0.4448139 245.07520067 -0.45045535 248.39974308 -0.47247124 C252.00408502 -0.49504437 255.60708899 -0.48692119 259.21143627 -0.47098732 C260.26192365 -0.48486941 261.31241102 -0.49875149 262.39473134 -0.51305425 C266.99418953 -0.46282316 270.31915119 -0.40472921 274.00462151 2.53449631 C276.43770518 5.23107062 277.09803211 6.0989334 277.00908947 9.64092064 C276.99877697 10.46398705 276.98846447 11.28705345 276.97783947 12.13506126 C276.93658947 12.9813308 276.89533947 13.82760033 276.85283947 14.69951439 C276.84252697 15.54965111 276.83221447 16.39978783 276.82158947 17.27568626 C276.71756757 21.42030879 276.60602388 24.54659343 274.35283947 28.13701439 C271.15220317 30.27077192 270.34564228 30.38851932 266.67165089 30.39707661 C265.21996555 30.40767499 265.21996555 30.40767499 263.73895323 30.41848749 C262.67330968 30.4160724 261.60766612 30.41365732 260.50973034 30.41116905 C258.81446117 30.41902407 258.81446117 30.41902407 257.08494413 30.42703778 C253.27788569 30.44210288 249.47096089 30.44274436 245.66387463 30.44341087 C242.94250881 30.44994441 240.2211547 30.45940531 237.49979687 30.46863365 C230.09285084 30.4914983 222.68593343 30.4994057 215.27895689 30.5044601 C210.65546173 30.50771517 206.03197491 30.51423646 201.40848446 30.52146149 C188.61117921 30.54102868 175.81388173 30.5574324 163.01656055 30.56033802 C161.78781284 30.56061938 161.78781284 30.56061938 160.53424194 30.56090641 C158.87354684 30.56127267 157.21285174 30.56163637 155.55215664 30.56199753 C154.72776869 30.56218034 153.90338075 30.56236315 153.05401134 30.5625515 C152.22861911 30.56273205 151.40322687 30.5629126 150.55282275 30.56309862 C137.17384259 30.56664144 123.79502327 30.59366997 110.41609891 30.63104939 C96.68519047 30.66910575 82.95436189 30.6884953 69.22339952 30.68879753 C61.51187415 30.68938268 53.80054066 30.69791137 46.0890646 30.7267952 C39.52355839 30.75127339 32.95831407 30.75861624 26.3927746 30.74354767 C23.04203432 30.73636387 19.69223375 30.74000273 16.34148121 30.75995827 C12.71050255 30.78026863 9.08087553 30.76995371 5.44991589 30.75174522 C4.38873377 30.76494519 3.32755166 30.77814516 2.23421252 30.79174513 C-4.89168705 30.70980406 -4.89168705 30.70980406 -8.80227566 27.74484921 C-10.75882455 24.97917185 -11.27099598 23.75076658 -11.24091053 20.41435814 C-11.23833241 19.54617455 -11.23575428 18.67799095 -11.23309803 17.78349876 C-11.20473866 16.88953392 -11.17637928 15.99556908 -11.14716053 15.07451439 C-11.14973866 14.17668236 -11.15231678 13.27885033 -11.15497303 12.35381126 C-11.09961176 8.63076578 -11.05098696 5.90592809 -9.30341053 2.57842064 C-6.41627214 0.06579312 -3.65770221 0.01025857 0 0 Z " fill="#161616" transform="translate(519.6471605300903,566.8629856109619)"/>
<path d="M0 0 C0.96231578 -0.00507454 1.92463156 -0.01014909 2.91610843 -0.0153774 C4.5131066 -0.01612404 4.5131066 -0.01612404 6.14236736 -0.01688576 C7.26760884 -0.02126801 8.39285031 -0.02565027 9.55219001 -0.03016531 C13.34850137 -0.04359294 17.1447895 -0.04974103 20.94111919 -0.0558567 C23.65248173 -0.0632256 26.36383936 -0.0720178 29.07519817 -0.08063698 C37.23017885 -0.10517253 45.38516565 -0.11978924 53.54017189 -0.13269705 C55.84260196 -0.13640795 58.14503142 -0.14038126 60.44746089 -0.14444971 C74.73845873 -0.16968373 89.02945751 -0.19174165 103.32047272 -0.20417786 C106.63152158 -0.20710766 109.94257041 -0.21006931 113.25361919 -0.21308327 C114.07658632 -0.21382932 114.89955344 -0.21457537 115.74745896 -0.21534403 C129.08446321 -0.22800259 142.42133429 -0.26123176 155.75827626 -0.3028851 C169.44394481 -0.34527803 183.12954513 -0.36886977 196.81527919 -0.37409842 C204.50223774 -0.37751541 212.18898813 -0.38930433 219.87588215 -0.42220116 C226.42127283 -0.45016658 232.96641271 -0.46121655 239.5118585 -0.4500057 C242.85247505 -0.44480981 246.19213952 -0.45047511 249.53275204 -0.47247124 C253.15282311 -0.49501505 256.77155904 -0.48693499 260.39163494 -0.47098732 C261.44960822 -0.48486941 262.50758151 -0.49875149 263.59761459 -0.51305425 C270.70491905 -0.43560349 270.70491905 -0.43560349 274.60964775 2.53548813 C276.50947688 5.21022466 277.08955037 6.38195396 277.08638287 9.60576439 C277.08831646 10.42431908 277.09025005 11.24287376 277.09224224 12.08623314 C277.06839458 12.92799095 277.04454693 13.76974876 277.01997662 14.63701439 C277.03093365 15.4787722 277.04189068 16.32053001 277.05317974 17.18779564 C277.00417092 21.33720938 276.80213571 23.59007071 274.54732037 27.16826439 C271.54219073 29.99926502 269.94757926 30.26224729 265.92777729 30.26564884 C264.96832821 30.26887329 264.00887912 30.27209773 263.02035582 30.27541989 C261.9588992 30.27387129 260.89744258 30.27232269 259.80382061 30.27072716 C258.12102538 30.27412549 258.12102538 30.27412549 256.40423429 30.27759248 C252.61939985 30.28395709 248.83460099 30.28310154 245.04976177 30.28227806 C242.34663029 30.28472298 239.64350136 30.28864154 236.94037151 30.29245567 C230.34457491 30.30077403 223.74878724 30.30351105 217.15298583 30.30406805 C211.7931307 30.30454267 206.43327853 30.30659472 201.07342434 30.30976868 C185.88768148 30.31857866 170.70194569 30.32318754 155.51620026 30.3224382 C154.69695818 30.32239825 153.87771609 30.32235829 153.03364849 30.32231712 C152.21340967 30.32227624 151.39317086 30.32223536 150.54807632 30.32219324 C137.2524819 30.32178672 123.9569158 30.33135684 110.66132958 30.34545549 C97.01973523 30.35980725 83.37815469 30.36672633 69.7365526 30.36586171 C62.07373794 30.36552932 54.41095297 30.36829499 46.7481451 30.37903976 C40.2240046 30.38812903 33.69990723 30.39033304 27.17576315 30.38353034 C23.84566643 30.38025706 20.51572035 30.38131648 17.18562031 30.38888359 C13.57870519 30.39655093 9.97200997 30.39199362 6.36509991 30.38425255 C5.30810473 30.38939611 4.25110955 30.39453967 3.16208422 30.3998391 C2.19741964 30.39524031 1.23275506 30.39064151 0.23885822 30.38590336 C-0.59392348 30.38612073 -1.42670518 30.38633809 -2.28472269 30.38656205 C-4.83129901 30.10509692 -6.39012811 29.51831868 -8.54252338 28.13701439 C-11.38043968 23.88013995 -10.91043757 20.20564357 -10.91752338 15.19951439 C-10.94201557 14.29265892 -10.96650776 13.38580345 -10.99174213 12.45146751 C-11.0211787 5.78408546 -11.0211787 5.78408546 -8.64408588 2.57060814 C-5.49541019 0.4227197 -3.7747408 0.01053661 0 0 Z " fill="#161616" transform="translate(519.5425233840942,638.8629856109619)"/>
<path d="M0 0 C1.13511743 -0.00779995 2.27023485 -0.01559991 3.43974978 -0.02363622 C7.25781284 -0.04364023 11.07488847 -0.0277575 14.89295959 -0.01205444 C17.62433947 -0.01607537 20.35567691 -0.02754638 23.08703613 -0.03860474 C29.74447847 -0.0608591 36.40163924 -0.05602612 43.05909269 -0.04154153 C48.46944758 -0.03025691 53.87972347 -0.028715 59.29008675 -0.03416061 C60.0596516 -0.03492678 60.82921645 -0.03569294 61.62210144 -0.03648233 C63.18539268 -0.03808093 64.74868388 -0.039702 66.31197507 -0.04134528 C80.9776185 -0.05560946 95.64310576 -0.03920013 110.30872358 -0.01234345 C122.89482321 0.00999153 135.48069226 0.0061197 148.06678772 -0.01693726 C162.67781372 -0.04369118 177.28870274 -0.05423141 191.89974982 -0.03887594 C193.45764734 -0.03728317 195.01554489 -0.03571132 196.57344246 -0.03416061 C197.3399816 -0.03338924 198.10652074 -0.03261786 198.89628835 -0.03182311 C204.30016455 -0.02750454 209.70395394 -0.0347961 215.1078167 -0.04655838 C221.69346197 -0.06057764 228.27880924 -0.05679603 234.86442035 -0.03015466 C238.2252675 -0.01700719 241.5852059 -0.01456622 244.94611359 -0.02840042 C248.58802924 -0.04201176 252.22853608 -0.02499044 255.87036133 0 C256.93475227 -0.01115361 257.99914321 -0.02230722 259.09578842 -0.03379881 C266.24543251 0.06172835 266.24543251 0.06172835 270.15276432 3.03507423 C273.02233072 7.07667558 272.77097081 10.31984796 272.68617249 15.13491821 C272.71388733 15.97667603 272.74160217 16.81843384 272.77015686 17.68569946 C272.7669342 18.50425415 272.76371155 19.32280884 272.76039124 20.16616821 C272.7599884 20.90415649 272.75958557 21.64214478 272.75917053 22.40249634 C271.54868219 25.95585281 269.2111653 27.89837897 265.99867249 29.63491821 C262.27682173 30.36821524 258.61655852 30.31419275 254.83276367 30.27656555 C253.7041045 30.28507107 252.57544533 30.29357659 251.41258436 30.30233985 C247.62838192 30.32463564 243.84516037 30.31116394 240.06092834 30.29776001 C237.34895482 30.30342763 234.63702805 30.31652274 231.92507935 30.32917786 C225.32273238 30.35525735 218.72065779 30.35417963 212.11827891 30.34313967 C206.75278258 30.33458016 201.38736504 30.33541286 196.02186775 30.34293556 C194.87625303 30.34451789 194.87625303 30.34451789 193.70749458 30.34613219 C192.15596041 30.34830312 190.60442627 30.35048989 189.05289216 30.35269234 C174.50646862 30.37211937 159.96019793 30.36012636 145.4137869 30.3379064 C132.93114974 30.3196504 120.44880828 30.33056667 107.96620178 30.36221313 C93.47015138 30.39896209 78.97428566 30.41600285 64.47818857 30.40280086 C62.93267956 30.40145975 61.38717052 30.40015077 59.84166145 30.39887428 C59.08124051 30.39824362 58.32081956 30.39761295 57.53735555 30.39696318 C52.17751613 30.39393438 46.81781591 30.40520277 41.45800591 30.42212486 C34.92727007 30.44243328 28.39695173 30.44160576 21.86623781 30.41349246 C18.53359244 30.39970345 15.2022779 30.39879919 11.86956406 30.41744232 C8.25820083 30.43601067 4.64885848 30.41781984 1.03759766 30.39009094 C-0.01764715 30.40415739 -1.07289195 30.41822384 -2.16011387 30.43271655 C-9.06795434 30.32542468 -9.06795434 30.32542468 -11.76778209 28.3281008 C-14.20662863 25.50958212 -15.63415776 23.02595755 -15.63023376 19.28726196 C-15.63216736 18.51704712 -15.63410095 17.74683228 -15.63609314 16.95327759 C-15.61224548 16.16759399 -15.58839783 15.3819104 -15.56382751 14.57241821 C-15.57478455 13.78286743 -15.58574158 12.99331665 -15.59703064 12.17984009 C-15.55131327 8.54378568 -15.36225796 6.33038831 -13.65557003 3.04180336 C-9.5117274 -0.71586129 -5.41138583 -0.05658659 0 0 Z " fill="#161616" transform="translate(524.0013275146484,495.3650817871094)"/>
<path d="M0 0 C0.33 0 0.66 0 1 0 C1 28.38 1 56.76 1 86 C-27.38 86 -55.76 86 -85 86 C-85 85.67 -85 85.34 -85 85 C-83.94683594 84.78085937 -82.89367187 84.56171875 -81.80859375 84.3359375 C-54.36006223 78.40441276 -31.4777528 65.40141845 -15.71875 41.59765625 C-7.412002 28.62571131 -2.69558566 15.13311246 0 0 Z " fill="#000000" transform="translate(1023,938)"/>
<path d="M0 0 C0.33 0 0.66 0 1 0 C1.21914063 1.05316406 1.43828125 2.10632813 1.6640625 3.19140625 C7.59558724 30.63993777 20.59858155 53.5222472 44.40234375 69.28125 C57.37428869 77.587998 70.86688754 82.30441434 86 85 C86 85.33 86 85.66 86 86 C57.62 86 29.24 86 0 86 C0 57.62 0 29.24 0 0 Z " fill="#000000" transform="translate(0,938)"/>
<path d="M0 0 C28.38 0 56.76 0 86 0 C86 28.38 86 56.76 86 86 C85.67 86 85.34 86 85 86 C84.78085937 84.94683594 84.56171875 83.89367187 84.3359375 82.80859375 C78.40441276 55.36006223 65.40141845 32.4777528 41.59765625 16.71875 C28.62571131 8.412002 15.13311246 3.69558566 0 1 C0 0.67 0 0.34 0 0 Z " fill="#000000" transform="translate(938,0)"/>
<path d="M0 0 C28.38 0 56.76 0 86 0 C86 0.33 86 0.66 86 1 C84.94683594 1.21914063 83.89367187 1.43828125 82.80859375 1.6640625 C55.36006223 7.59558724 32.4777528 20.59858155 16.71875 44.40234375 C8.412002 57.37428869 3.69558566 70.86688754 1 86 C0.67 86 0.34 86 0 86 C0 57.62 0 29.24 0 0 Z " fill="#000000" transform="translate(0,0)"/>
<path d="M0 0 C-2 2 -2 2 -4.72925758 2.23047829 C-6.48527322 2.21665139 -6.48527322 2.21665139 -8.27676392 2.20254517 C-8.92775759 2.20017046 -9.57875127 2.19779576 -10.24947202 2.1953491 C-12.44073799 2.18489453 -14.63160625 2.16001287 -16.82275391 2.13525391 C-18.38952594 2.12483258 -19.95630408 2.11529646 -21.52308655 2.10658264 C-25.78533212 2.08035514 -30.04738623 2.04169027 -34.30951357 2.00085878 C-38.76043985 1.96031173 -43.21143989 1.93111049 -47.66244507 1.90072632 C-56.09499609 1.84142807 -64.52743025 1.77186711 -72.9598707 1.69865549 C-82.55822631 1.6158182 -92.15665598 1.54436619 -101.75510907 1.47388959 C-121.50351518 1.32863092 -141.25178384 1.16901245 -161 1 C-161 0.67 -161 0.34 -161 0 C-140.45121233 -0.15383973 -119.90239019 -0.30187471 -99.35351086 -0.4429636 C-89.81271878 -0.50860675 -80.27194734 -0.57616289 -70.73120117 -0.64819336 C-62.41731563 -0.71095649 -54.10341375 -0.77016004 -45.7894724 -0.82505554 C-41.38567254 -0.85425827 -36.9819018 -0.88526621 -32.57814598 -0.92053413 C-28.43570223 -0.95365314 -24.29325346 -0.98202325 -20.15075111 -1.00670624 C-18.62813187 -1.01662408 -17.10552292 -1.02829668 -15.58293152 -1.04183006 C-13.50830453 -1.06001102 -11.43373326 -1.07194831 -9.35905457 -1.08229065 C-8.19667361 -1.09058679 -7.03429266 -1.09888292 -5.83668804 -1.10743046 C-3 -1 -3 -1 0 0 Z " fill="#1F1F1F" transform="translate(793,666)"/>
<path d="M0 0 C0.33 0 0.66 0 1 0 C1 28.05 1 56.1 1 85 C-2 82 -2 82 -2.34057617 78.0793457 C-2.34010167 76.44474725 -2.32318098 74.81010054 -2.29296875 73.17578125 C-2.28872391 72.31438034 -2.28447906 71.45297943 -2.28010559 70.56547546 C-2.26331248 67.81416569 -2.22565956 65.06358838 -2.1875 62.3125 C-2.17245396 60.4472762 -2.15876541 58.58204093 -2.14648438 56.71679688 C-2.11340693 52.14424902 -2.0616206 47.5722487 -2 43 C-1.67 43 -1.34 43 -1 43 C-0.67 28.81 -0.34 14.62 0 0 Z " fill="#BFBFBF" transform="translate(333,247)"/>
<path d="M0 0 C4 4 4 4 4 6 C3.01 6 2.02 6 1 6 C1 31.08 1 56.16 1 82 C0.67 82 0.34 82 0 82 C0 54.94 0 27.88 0 0 Z " fill="#EFEFEF" transform="translate(277,297)"/>
<path d="M0 0 C1.07878418 0.01047363 2.15756836 0.02094727 3.26904297 0.03173828 C5.01894531 0.04140625 5.01894531 0.04140625 6.80419922 0.05126953 C8.02751953 0.06802734 9.25083984 0.08478516 10.51123047 0.10205078 C11.74228516 0.11107422 12.97333984 0.12009766 14.24169922 0.12939453 C17.29006862 0.1530253 20.33805429 0.18597024 23.38623047 0.22705078 C23.38623047 1.21705078 23.38623047 2.20705078 23.38623047 3.22705078 C22.67490967 3.2416333 21.96358887 3.25621582 21.23071289 3.27124023 C18.01116715 3.34566084 14.79266529 3.44234078 11.57373047 3.53955078 C10.45417969 3.56210938 9.33462891 3.58466797 8.18115234 3.60791016 C7.10800781 3.64335937 6.03486328 3.67880859 4.92919922 3.71533203 C3.93944092 3.74151611 2.94968262 3.7677002 1.92993164 3.79467773 C-0.93858911 4.28226294 -1.84471865 4.97576973 -3.61376953 7.22705078 C-4.23876953 4.85205078 -4.23876953 4.85205078 -4.61376953 2.22705078 C-2.61376953 0.22705078 -2.61376953 0.22705078 0 0 Z " fill="#242425" transform="translate(573.61376953125,244.77294921875)"/>
<path d="M0 0 C0.99 0 1.98 0 3 0 C4.25 6.625 4.25 6.625 2 10 C-2.48410087 11.49470029 -7.32524567 11.09166185 -12 11 C-11.34 10.01 -10.68 9.02 -10 8 C-7.3984375 7.48828125 -7.3984375 7.48828125 -4.375 7.3125 C-2.87066406 7.21388672 -2.87066406 7.21388672 -1.3359375 7.11328125 C-0.56507813 7.07589844 0.20578125 7.03851563 1 7 C0.67 4.69 0.34 2.38 0 0 Z " fill="#1F1F1F" transform="translate(780,272)"/>
<path d="M0 0 C0.99 0.33 1.98 0.66 3 1 C3.92148672 3.59392529 4.62667171 6.02182713 5.25 8.6875 C5.5284375 9.75000977 5.5284375 9.75000977 5.8125 10.83398438 C6.88022909 15.21410029 7.09785604 18.53116293 6 23 C3.22957891 20.22957891 3.60203894 18.23466195 3.375 14.375 C3.30023437 13.18648438 3.22546875 11.99796875 3.1484375 10.7734375 C3.09945312 9.85820312 3.05046875 8.94296875 3 8 C2.34 8 1.68 8 1 8 C0.67 5.36 0.34 2.72 0 0 Z " fill="#1D1D1D" transform="translate(532,289)"/>
<path d="M0 0 C0.99 0.33 1.98 0.66 3 1 C3.05397335 3.4377963 3.09365616 5.87439685 3.125 8.3125 C3.14175781 9.00279297 3.15851562 9.69308594 3.17578125 10.40429688 C3.21217794 14.17135396 3.14378864 15.78431704 1 19 C-0.26582219 15.13276369 -0.1118765 11.26848738 -0.0625 7.25 C-0.05798828 6.55261719 -0.05347656 5.85523438 -0.04882812 5.13671875 C-0.0371002 3.42444197 -0.01916653 1.71220967 0 0 Z " fill="#1D1D1D" transform="translate(685,275)"/>
<path d="M0 0 C3.046875 -0.328125 3.046875 -0.328125 6.75 -0.25 C7.96171875 -0.23453125 9.1734375 -0.2190625 10.421875 -0.203125 C13.68915711 -0.0176461 16.7882058 0.38916797 20 1 C18 3 18 3 15.93701172 3.22705078 C14.69588623 3.21134033 14.69588623 3.21134033 13.4296875 3.1953125 C12.53378906 3.18886719 11.63789062 3.18242187 10.71484375 3.17578125 C9.77769531 3.15902344 8.84054687 3.14226562 7.875 3.125 C6.93011719 3.11597656 5.98523438 3.10695312 5.01171875 3.09765625 C2.67422708 3.07404522 0.33723877 3.04111516 -2 3 C-1.34 2.01 -0.68 1.02 0 0 Z " fill="#1F1F1F" transform="translate(729,242)"/>
<path d="M0 0 C4.23490358 3.62991735 7.57037352 8.43544281 8.25 14.07421875 C8.25 16 8.25 16 8 19 C3.3239005 14.3239005 0.52847638 6.51787536 0 0 Z " fill="#1C1C1D" transform="translate(878,213)"/>
<path d="M0 0 C0.33 0 0.66 0 1 0 C1.28373405 3.43559106 1.5211389 6.87285235 1.75 10.3125 C1.83121094 11.28896484 1.91242187 12.26542969 1.99609375 13.27148438 C2.08310547 14.67817383 2.08310547 14.67817383 2.171875 16.11328125 C2.2347168 16.97735596 2.29755859 17.84143066 2.36230469 18.73168945 C2 21 2 21 0.17675781 22.86791992 C-0.54157227 23.24150635 -1.25990234 23.61509277 -2 24 C-2.99 23.67 -3.98 23.34 -5 23 C-4.35546875 22.54109375 -3.7109375 22.0821875 -3.046875 21.609375 C-0.00080709 17.72621972 -0.32812496 14.05823621 -0.25 9.25 C-0.22035156 8.36183594 -0.19070313 7.47367188 -0.16015625 6.55859375 C-0.08963082 4.37230551 -0.03685363 2.18707232 0 0 Z M2 11 C2.33 11 2.66 11 3 11 C3 13.31 3 15.62 3 18 C2.67 18 2.34 18 2 18 C2 15.69 2 13.38 2 11 Z " fill="#EEEEEE" transform="translate(796,722)"/>
<path d="M0 0 C0.99 0 1.98 0 3 0 C4.20577428 4.94367454 3.6290678 8.20862412 2 13 C-0.59381229 9.10928156 -0.63187808 6.63833615 -1 2 C-0.67 1.34 -0.34 0.68 0 0 Z " fill="#F0F0F0" transform="translate(620,323)"/>
<path d="M0 0 C0.66 0.66 1.32 1.32 2 2 C1.70361342 6.44579867 0.42284644 9.31727342 -2 13 C-2.68096422 14.32608822 -3.35330586 15.65686601 -4 17 C-5.6852084 12.92320841 -4.16939007 10.16924407 -2.5625 6.25 C-2.08941406 5.07953125 -1.61632812 3.9090625 -1.12890625 2.703125 C-0.75636719 1.81109375 -0.38382813 0.9190625 0 0 Z " fill="#171717" transform="translate(857,774)"/>
<path d="M0 0 C2 2 2 2 2.01171875 4.0234375 C1.90472656 4.79945313 1.79773438 5.57546875 1.6875 6.375 C1.58824219 7.14585937 1.48898437 7.91671875 1.38671875 8.7109375 C1.19529297 9.84402344 1.19529297 9.84402344 1 11 C0.88269531 11.73476563 0.76539063 12.46953125 0.64453125 13.2265625 C0.43183594 13.81179688 0.21914063 14.39703125 0 15 C-0.99 15.33 -1.98 15.66 -3 16 C-2.40984815 10.49191603 -1.43336231 5.35121931 0 0 Z " fill="#1E1E1E" transform="translate(634,285)"/>
<path d="M0 0 C-3.43140462 3.43140462 -8.32202276 2.86494029 -13 3 C-16.04853349 2.81656389 -18.97412388 2.44644074 -22 2 C-22 1.67 -22 1.34 -22 1 C-14.64206267 0.08839714 -7.41017023 -0.11459026 0 0 Z " fill="#201F1F" transform="translate(775,854)"/>
<path d="M0 0 C0.66 0.66 1.32 1.32 2 2 C1.7578125 4.6015625 1.7578125 4.6015625 1.125 7.625 C0.81949219 9.12933594 0.81949219 9.12933594 0.5078125 10.6640625 C0.34023438 11.43492187 0.17265625 12.20578125 0 13 C-0.66 12.67 -1.32 12.34 -2 12 C-2.59355614 9.35139573 -2.74209269 6.70802678 -3 4 C-2.01 3.67 -1.02 3.34 0 3 C0 2.01 0 1.02 0 0 Z " fill="#EEEFEE" transform="translate(547,322)"/>
<path d="M0 0 C2.19050021 0.09017996 4.378466 0.24666208 6.5625 0.4375 C7.76003906 0.53933594 8.95757813 0.64117187 10.19140625 0.74609375 C11.11824219 0.82988281 12.04507813 0.91367187 13 1 C13 1.33 13 1.66 13 2 C9.37 2.33 5.74 2.66 2 3 C1.34 5.64 0.68 8.28 0 11 C-0.33 11 -0.66 11 -1 11 C-1.02688151 9.35425434 -1.04634123 7.70838587 -1.0625 6.0625 C-1.07410156 5.14597656 -1.08570313 4.22945313 -1.09765625 3.28515625 C-1 1 -1 1 0 0 Z " fill="#1E1D1E" transform="translate(684,342)"/>
<path d="M0 0 C0.99 0.33 1.98 0.66 3 1 C4.57191628 5.71574884 5.51891389 9.13947556 4 14 C1.90284215 10.85426323 1.47995441 8.98543749 0.875 5.3125 C0.70742188 4.31863281 0.53984375 3.32476562 0.3671875 2.30078125 C0.24601563 1.54152344 0.12484375 0.78226562 0 0 Z " fill="#1D1D1E" transform="translate(540,321)"/>
<path d="M0 0 C0.33 0 0.66 0 1 0 C2.17327203 4.83974712 2.9302313 9.73256121 1 14.4375 C0.67 14.953125 0.34 15.46875 0 16 C-0.83830296 13.07924603 -1.13527361 10.47335217 -1.125 7.4375 C-1.12757813 6.67308594 -1.13015625 5.90867187 -1.1328125 5.12109375 C-1 3 -1 3 0 0 Z " fill="#232323" transform="translate(896,260)"/>
<path d="M0 0 C2.4056198 3.84899168 2.71267364 7.54644135 3 12 C2.34 12.66 1.68 13.32 1 14 C-0.5883272 9.8306411 -1.30442659 6.46492339 -1 2 C-0.67 1.34 -0.34 0.68 0 0 Z " fill="#1E1E1F" transform="translate(529,270)"/>
<path d="M0 0 C0.33 0 0.66 0 1 0 C1.24927162 2.58281438 1.47499275 5.16412228 1.6875 7.75 C1.76033203 8.47960937 1.83316406 9.20921875 1.90820312 9.9609375 C2.17234629 13.37926075 2.28508387 15.51558309 0.51953125 18.515625 C0.01808594 19.00546875 -0.48335937 19.4953125 -1 20 C-1.11044961 13.26257354 -0.70132913 6.70019789 0 0 Z " fill="#CECECE" transform="translate(899,742)"/>
<path d="M0 0 C5.41342681 1.14514798 7.9342948 2.34012809 11 7 C10.01 7.495 10.01 7.495 9 8 C7.49712782 6.85793642 5.99776716 5.71125043 4.5 4.5625 C3.6646875 3.92441406 2.829375 3.28632813 1.96875 2.62890625 C1.3190625 2.09136719 0.669375 1.55382812 0 1 C0 0.67 0 0.34 0 0 Z " fill="#1D1D1D" transform="translate(764,251)"/>
<path d="M0 0 C-0.33 0.99 -0.66 1.98 -1 3 C-4.3 3.33 -7.6 3.66 -11 4 C-10.67 3.01 -10.34 2.02 -10 1 C-6.59437148 0.22157062 -3.49234244 -0.09978121 0 0 Z " fill="#1E1E1F" transform="translate(258,138)"/>
<path d="M0 0 C2 3 2 3 1.3125 6.5625 C0 10 0 10 -3 12 C-2.01 8.04 -1.02 4.08 0 0 Z " fill="#E6E6E6" transform="translate(580,306)"/>
<path d="M0 0 C2.64 0 5.28 0 8 0 C8 0.33 8 0.66 8 1 C9.65 1.33 11.3 1.66 13 2 C13 2.33 13 2.66 13 3 C11.20841511 3.02696365 9.41671527 3.04637917 7.625 3.0625 C6.62726562 3.07410156 5.62953125 3.08570313 4.6015625 3.09765625 C2 3 2 3 0 2 C0 1.34 0 0.68 0 0 Z " fill="#1C1C1C" transform="translate(744,136)"/>
<path d="M0 0 C0.66 0.33 1.32 0.66 2 1 C1.67 1.66 1.34 2.32 1 3 C0.76970044 5.37123246 0.58880058 7.74741943 0.4375 10.125 C0.35371094 11.40632813 0.26992187 12.68765625 0.18359375 14.0078125 C0.12300781 14.99523437 0.06242188 15.98265625 0 17 C-0.33 17 -0.66 17 -1 17 C-1.22126178 14.54220024 -1.42750395 12.08472352 -1.625 9.625 C-1.68945312 8.92632812 -1.75390625 8.22765625 -1.8203125 7.5078125 C-1.96119739 5.67630889 -1.98761659 3.83687252 -2 2 C-1.34 1.34 -0.68 0.68 0 0 Z " fill="#1F1F20" transform="translate(231,424)"/>
<path d="M0 0 C-1.4317616 0.69937202 -2.87067032 1.38412718 -4.3125 2.0625 C-5.51326172 2.63677734 -5.51326172 2.63677734 -6.73828125 3.22265625 C-9 4 -9 4 -12 3 C-9.98445443 0.27308541 -8.85841061 -0.02980829 -5.4375 -0.75 C-2 -1 -2 -1 0 0 Z " fill="#1D1E1E" transform="translate(225,149)"/>
<path d="M0 0 C2.56687367 3.8503105 1.83288724 5.58569763 1 10 C0.01 9.67 -0.98 9.34 -2 9 C-1.34 6.03 -0.68 3.06 0 0 Z " fill="#202020" transform="translate(555,300)"/>
<path d="M0 0 C2 3 2 3 2 5 C2.66 5.33 3.32 5.66 4 6 C3.67 6.99 3.34 7.98 3 9 C2.34 9 1.68 9 1 9 C-0.61949011 6.42786866 -1.04408751 5.32330841 -0.625 2.25 C-0.41875 1.5075 -0.2125 0.765 0 0 Z " fill="#1F1F1F" transform="translate(688,292)"/>
<path d="M0 0 C1.98362069 2.91708924 1.9876191 4.12380904 1.625 7.75 C1.41875 8.8225 1.2125 9.895 1 11 C0.67 11 0.34 11 0 11 C-0.19491452 9.54263913 -0.38069358 8.08405407 -0.5625 6.625 C-0.66691406 5.81289063 -0.77132812 5.00078125 -0.87890625 4.1640625 C-1 2 -1 2 0 0 Z " fill="#1D1D1C" transform="translate(617,321)"/>
<path d="M0 0 C0.66 0.66 1.32 1.32 2 2 C1.96712417 4.72869407 1.43602229 7.2966618 1 10 C0.34 9.34 -0.32 8.68 -1 8 C-0.96712417 5.27130593 -0.43602229 2.7033382 0 0 Z " fill="#222222" transform="translate(550,319)"/>
<path d="M0 0 C1.125 1.6875 1.125 1.6875 2 4 C1.125 6.75 1.125 6.75 0 9 C-1.125 7.3125 -1.125 7.3125 -2 5 C-1.125 2.25 -1.125 2.25 0 0 Z " fill="#232222" transform="translate(854,782)"/>
<path d="M0 0 C1.9451 2.91765 2.45276317 4.62537285 3 8 C0.525 7.01 0.525 7.01 -2 6 C-1.34 4.02 -0.68 2.04 0 0 Z " fill="#DBDBDB" transform="translate(584,295)"/>
<path d="M0 0 C1.80411967 2.75924185 2.0127245 3.88972103 1.625 7.25 C1.41875 8.1575 1.2125 9.065 1 10 C-0.80411967 7.24075815 -1.0127245 6.11027897 -0.625 2.75 C-0.41875 1.8425 -0.2125 0.935 0 0 Z " fill="#1D1D1D" transform="translate(604,269)"/>
<path d="M0 0 C2.29013653 3.4352048 2.17842973 4.985331 2 9 C1.01 9.33 0.02 9.66 -1 10 C-0.67 6.7 -0.34 3.4 0 0 Z " fill="#232323" transform="translate(161,268)"/>
<path d="M0 0 C2.97 0.33 5.94 0.66 9 1 C8.34 1.66 7.68 2.32 7 3 C3.9375 2.75 3.9375 2.75 1 2 C0.67 1.34 0.34 0.68 0 0 Z " fill="#1D1C1D" transform="translate(786,143)"/>
<path d="M0 0 C2.31 0 4.62 0 7 0 C2.25 3.875 2.25 3.875 0 5 C-0.33 4.01 -0.66 3.02 -1 2 C-0.67 1.34 -0.34 0.68 0 0 Z " fill="#1E1E1E" transform="translate(511,641)"/>
<path d="M0 0 C0.99 0.33 1.98 0.66 3 1 C1.515 3.475 1.515 3.475 0 6 C-0.66 4.68 -1.32 3.36 -2 2 C-1.34 1.34 -0.68 0.68 0 0 Z " fill="#1D1D1E" transform="translate(231,496)"/>
</svg>
